<svg width="292" height="80" viewBox="0 0 292 80" fill="none" xmlns="http://www.w3.org/2000/svg">
<g clip-path="url(#clip0_3820_1086)">
<path d="M0 21.9909H7.77899C8.12668 25.1369 10.1817 26.4504 13.8973 26.4504C16.4298 26.4504 18.9207 25.5315 18.9207 23.1694C18.9207 20.6775 16.3883 20.1531 12.1018 19.1045C6.68401 17.8378 0.960048 16.1765 0.960048 9.61973C0.960048 3.06295 6.37783 0 13.3732 0C20.3686 0 25.392 3.06295 25.6982 9.61973H18.1371C17.831 7.21609 15.9939 5.86113 13.1137 5.86113C10.4048 5.86113 8.61449 7.03959 8.61449 8.7891C8.61449 10.9747 11.0172 11.499 15.6929 12.5477C21.5051 13.9027 26.7516 15.6937 26.7516 22.3855C26.7516 29.0772 21.1574 32.5711 13.9492 32.5711C5.63574 32.5711 0.176441 28.9007 0 21.9909Z" fill="#EF4425"/>
<path d="M31.204 25.9262V13.9029H28.2305V9.44342H31.204V2.3623H38.1527V9.44342H42.216V13.9029H38.1527V24.3947C38.1527 26.1443 39.1127 26.5803 40.6436 26.5803C41.256 26.5803 41.9566 26.5388 42.216 26.5388V31.7406C41.6037 31.9171 40.2492 32.0885 38.3239 32.0885C34.1724 32.0885 31.1988 30.7335 31.1988 25.9262H31.204Z" fill="#EF4425"/>
<path d="M44.0068 20.6774C44.0068 13.9441 48.8123 8.83057 55.9789 8.83057C63.1455 8.83057 67.9094 13.9441 67.9094 20.6774C67.9094 27.4107 63.1922 32.5243 55.9789 32.5243C48.7656 32.5243 44.0068 27.4107 44.0068 20.6774ZM60.7013 20.6774C60.7013 16.6125 59.0407 13.8559 55.9374 13.8559C52.8341 13.8559 51.2202 16.6073 51.2202 20.6774C51.2202 24.7475 52.8393 27.4522 55.9374 27.4522C59.0355 27.4522 60.7013 24.7423 60.7013 20.6774Z" fill="#EF4425"/>
<path d="M70.7532 9.443H77.5722V12.1529H77.7019C79.2328 10.1438 81.4176 8.78369 84.4741 8.78369C90.4161 8.78369 94.0435 13.8973 94.0435 20.6305C94.0435 27.8882 90.1514 32.5241 84.2977 32.5241C81.4124 32.5241 79.3573 31.3872 77.9614 29.5079H77.8732V39.2159H70.748V9.443H70.7532ZM86.8353 20.8953C86.8353 17.0485 85.3927 14.515 82.3361 14.515C79.2795 14.515 77.6604 17.2717 77.6604 20.8953C77.6604 24.5189 79.4092 27.016 82.4658 27.016C85.1747 27.016 86.8353 24.7006 86.8353 20.8953Z" fill="#EF4425"/>
<path d="M105.85 25.9262V13.9029H102.876V9.44342H105.85V2.3623H112.798V9.44342H116.862V13.9029H112.798V24.3947C112.798 26.1443 113.758 26.5803 115.289 26.5803C115.901 26.5803 116.602 26.5388 116.862 26.5388V31.7406C116.249 31.9171 114.895 32.0885 112.969 32.0885C108.818 32.0885 105.844 30.7335 105.844 25.9262H105.85Z" fill="#EF4425"/>
<path d="M119.876 0.565918H127.001V12.1947H127.131C128.75 10.0507 130.67 8.78396 133.774 8.78396C138.667 8.78396 141.553 12.283 141.553 17.2668V31.8235H134.428V18.71C134.428 16.3479 133.249 14.7333 130.93 14.7333C128.61 14.7333 126.996 16.7009 126.996 19.4575V31.8287H119.871V0.565918H119.876Z" fill="#EF4425"/>
<path d="M144.22 20.5944C144.22 13.9078 148.895 8.78906 155.714 8.78906C158.906 8.78906 161.438 9.83773 163.364 11.5872C166.031 14.0376 167.339 17.926 167.297 22.4737H151.215C151.651 25.4899 153.312 27.3692 156.238 27.3692C158.117 27.3692 159.342 26.5386 159.954 25.1421H166.903C166.42 27.1512 165.112 29.0772 163.146 30.4321C161.267 31.7456 158.994 32.488 156.155 32.488C148.771 32.488 144.225 27.3744 144.225 20.5944H144.22ZM160.079 18.2323C159.819 15.5639 158.153 13.8611 155.839 13.8611C153.13 13.8611 151.729 15.5639 151.251 18.2323H160.079Z" fill="#EF4425"/>
<path d="M177.781 0.565918H192.856C196.089 0.565918 198.492 1.35502 200.152 2.70998C201.943 4.19473 202.861 6.20901 202.861 8.7009C202.861 11.8054 201.242 13.7729 198.492 14.8216V14.9514C201.901 16.0001 204.086 18.8865 204.086 22.6036C204.086 25.7496 202.949 28.0234 200.894 29.5964C199.057 31.0396 196.483 31.8235 193.204 31.8235H177.775V0.565918H177.781ZM191.725 12.9423C193.951 12.9423 195.482 11.8469 195.482 9.79629C195.482 7.74567 194.039 6.69181 191.766 6.69181H185.43V12.9423H191.725ZM192.332 25.6198C194.864 25.6198 196.442 24.1766 196.442 21.9494C196.442 19.4575 194.605 18.1908 192.249 18.1908H185.43V25.625H192.337L192.332 25.6198Z" fill="#EF4425"/>
<path d="M207.147 0.565918H214.361V31.8235H207.147V0.565918Z" fill="#EF4425"/>
<path d="M217.241 20.5944C217.241 13.9078 221.917 8.78906 228.736 8.78906C231.927 8.78906 234.46 9.83773 236.385 11.5872C239.052 14.0376 240.36 17.926 240.319 22.4737H224.237C224.673 25.4899 226.333 27.3692 229.26 27.3692C231.139 27.3692 232.363 26.5386 232.976 25.1421H239.924C239.442 27.1512 238.134 29.0772 236.167 30.4321C234.289 31.7456 232.016 32.488 229.177 32.488C221.792 32.488 217.246 27.3744 217.246 20.5944H217.241ZM233.105 18.2323C232.846 15.5639 231.18 13.8611 228.866 13.8611C226.157 13.8611 224.756 15.5639 224.278 18.2323H233.105Z" fill="#EF4425"/>
<path d="M242.155 20.5944C242.155 13.9078 246.831 8.78906 253.65 8.78906C256.841 8.78906 259.374 9.83773 261.299 11.5872C263.967 14.0376 265.274 17.926 265.233 22.4737H249.151C249.587 25.4899 251.247 27.3692 254.174 27.3692C256.053 27.3692 257.277 26.5386 257.89 25.1421H264.838C264.356 27.1512 263.048 29.0772 261.081 30.4321C259.203 31.7456 256.93 32.488 254.091 32.488C246.706 32.488 242.16 27.3744 242.16 20.5944H242.155ZM258.019 18.2323C257.755 15.5639 256.094 13.8611 253.78 13.8611C251.071 13.8611 249.67 15.5639 249.192 18.2323H258.019Z" fill="#EF4425"/>
<path d="M267.065 20.636C267.065 13.6431 271.087 8.78915 276.852 8.78915C279.997 8.78915 281.792 10.1026 283.1 11.9819H283.23V0.565918H290.355V31.8235H283.536V28.8073H283.448C282.093 31.1227 279.779 32.5244 276.847 32.5244C271.123 32.5244 267.06 28.1065 267.06 20.6308L267.065 20.636ZM283.406 20.636C283.406 16.8774 281.875 14.1675 278.772 14.1675C275.934 14.1675 274.273 16.7892 274.273 20.5529C274.273 24.3167 275.934 26.8917 278.689 26.8917C281.663 26.8917 283.406 24.3115 283.406 20.6412V20.636Z" fill="#EF4425"/>
<path d="M6.38789 51.2812H8.3962L13.6479 65.5058H11.7019L10.1918 61.1709H4.52487L2.99399 65.5058H1.16211L6.39308 51.2812H6.38789ZM5.03863 59.7121H9.69357L8.06408 54.936C7.78385 54.1417 7.42578 52.9269 7.42578 52.9269H7.38426C7.38426 52.9269 7.00543 54.121 6.73039 54.936L5.03863 59.7121Z" fill="#231F20"/>
<path d="M15.3398 55.2163H16.9486V56.6855H16.9901C17.6284 55.6888 18.7182 54.9775 20.0104 54.9775C21.3025 54.9775 22.2574 55.6161 22.6933 56.8101H22.7348C23.3887 55.6369 24.6238 54.9775 25.8744 54.9775C27.7063 54.9775 28.9985 56.1508 28.9985 58.2793V65.5006H27.3897V58.3624C27.3897 57.0905 26.5335 56.3325 25.5008 56.3325C24.1671 56.3325 22.9735 57.485 22.9735 59.0995V65.5058H21.3648V58.3675C21.3648 57.0956 20.6487 56.3377 19.5952 56.3377C18.3445 56.3377 16.9486 57.4902 16.9486 59.1047V65.511H15.3398V55.2267V55.2163Z" fill="#231F20"/>
<path d="M30.9443 60.3714C30.9443 57.3863 32.8904 54.9619 35.8172 54.9619C38.8998 54.9619 40.55 57.35 40.55 60.7504H32.5946C32.7139 62.8373 33.8452 64.4311 35.9158 64.4311C37.4052 64.4311 38.4016 63.7147 38.7596 62.3234H40.3321C39.8546 64.5297 38.2459 65.7861 35.9158 65.7861C32.7762 65.7861 30.9443 63.3617 30.9443 60.3766V60.3714ZM32.6361 59.5356H38.8219C38.7233 57.4849 37.6699 56.2338 35.8172 56.2338C33.9646 56.2338 32.8748 57.6667 32.6361 59.5356Z" fill="#231F20"/>
<path d="M44.1305 56.9293H44.172C44.7896 55.9325 45.8638 55.0967 47.2338 55.0967C47.5348 55.0967 47.6905 55.1382 47.8877 55.2161V56.7683H47.8254C47.5867 56.6905 47.4258 56.6697 47.1093 56.6697C45.5161 56.6697 44.1253 57.8637 44.1253 59.7949V65.5055H42.5166V55.2213H44.1253V56.9293H44.1305Z" fill="#231F20"/>
<path d="M49.7354 51.2812H51.3441V53.2696H49.7354V51.2812ZM49.7354 55.2164H51.3441V65.5006H49.7354V55.2164Z" fill="#231F20"/>
<path d="M53.3528 60.3714C53.3528 57.3863 55.2626 54.9619 58.3243 54.9619C60.7478 54.9619 62.3617 56.3532 62.7198 58.544H61.0903C60.8516 57.1527 59.876 56.2961 58.3243 56.2961C56.1396 56.2961 55.0031 58.1079 55.0031 60.3766C55.0031 62.6452 56.1344 64.4363 58.3243 64.4363C59.9953 64.4363 60.9865 63.4811 61.1266 61.8925H62.7146C62.4967 64.3584 60.8879 65.7912 58.3191 65.7912C55.2574 65.7912 53.3477 63.3668 53.3477 60.3818L53.3528 60.3714Z" fill="#231F20"/>
<path d="M71.1522 64.0675H71.1315C70.5139 64.8618 69.4605 65.6976 67.7116 65.6976C65.7656 65.6976 64.2295 64.7839 64.2295 62.832C64.2295 60.4076 66.1392 59.9092 68.7028 59.5095C70.1558 59.2914 71.1678 59.1512 71.1678 58.0403C71.1678 56.9293 70.3323 56.2285 68.8637 56.2285C67.1927 56.2285 66.3572 56.9449 66.3001 58.4971H64.7484C64.8055 56.5088 66.1185 55.0137 68.8429 55.0137C71.0277 55.0137 72.6416 55.8287 72.6416 58.2739V63.1694C72.6416 64.0052 72.8388 64.4621 73.7366 64.2648H73.7936V65.4381C73.5964 65.5159 73.337 65.599 72.9166 65.599C71.8632 65.599 71.3079 65.1214 71.147 64.0675H71.1522ZM71.1885 61.7002V59.9507C70.6488 60.2882 69.7147 60.5477 68.8429 60.7087C67.2342 61.0046 65.942 61.2849 65.942 62.7956C65.942 64.1662 67.0162 64.4673 68.0697 64.4673C70.2181 64.4673 71.1937 62.8943 71.1937 61.7002H71.1885Z" fill="#231F20"/>
<path d="M76.9951 56.5713H77.0367C77.7736 55.5953 78.8063 54.9775 80.2956 54.9775C82.4441 54.9775 83.757 56.1508 83.757 58.2793V65.5006H82.1483V58.4195C82.1483 57.0853 81.2713 56.3325 79.8234 56.3325C78.1939 56.3325 77.0003 57.485 77.0003 59.1774V65.5006H75.3916V55.2163H77.0003V56.5713H76.9951Z" fill="#231F20"/>
<path d="M89.5439 58.3829C89.5439 54.2038 92.0504 50.9644 96.285 50.9644C99.6063 50.9644 101.615 52.8748 101.993 55.5017H100.245C99.9073 53.7314 98.4957 52.5166 96.2487 52.5166C93.1299 52.5166 91.3758 55.0448 91.3758 58.3829C91.3758 61.721 93.3063 64.2129 96.2695 64.2129C98.9524 64.2129 100.224 62.3803 100.405 60.2934H102.175C102.154 61.7054 101.48 63.2992 100.468 64.2908C99.4714 65.2668 98.0235 65.7807 96.2124 65.7807C92.175 65.7807 89.5491 62.697 89.5491 58.3829H89.5439Z" fill="#231F20"/>
<path d="M103.758 60.3714C103.758 57.3863 105.668 54.9619 108.729 54.9619C111.791 54.9619 113.68 57.3863 113.68 60.3714C113.68 63.3565 111.812 65.7809 108.729 65.7809C105.647 65.7809 103.758 63.3565 103.758 60.3714ZM112.03 60.3714C112.03 58.1027 110.914 56.2909 108.729 56.2909C106.545 56.2909 105.408 58.1027 105.408 60.3714C105.408 62.64 106.539 64.4311 108.729 64.4311C110.919 64.4311 112.03 62.64 112.03 60.3714Z" fill="#231F20"/>
<path d="M115.75 51.2812H117.359V65.5058H115.75V51.2812Z" fill="#231F20"/>
<path d="M120.062 51.2812H121.671V65.5058H120.062V51.2812Z" fill="#231F20"/>
<path d="M123.742 60.3714C123.742 57.3863 125.688 54.9619 128.615 54.9619C131.698 54.9619 133.348 57.35 133.348 60.7504H125.392C125.512 62.8373 126.643 64.4311 128.714 64.4311C130.203 64.4311 131.199 63.7147 131.557 62.3234H133.13C132.652 64.5297 131.044 65.7861 128.714 65.7861C125.574 65.7861 123.742 63.3617 123.742 60.3766V60.3714ZM125.434 59.5356H131.62C131.521 57.4849 130.468 56.2338 128.615 56.2338C126.762 56.2338 125.673 57.6667 125.434 59.5356Z" fill="#231F20"/>
<path d="M135.055 66.0768H136.545C136.705 67.2086 137.78 67.6498 139.368 67.6498C141.257 67.6498 142.31 66.7932 142.31 65.0022V63.5486H142.268C141.511 64.5246 140.696 65.1424 139.227 65.1424C136.565 65.1424 134.733 63.0139 134.733 60.0496C134.733 56.8465 136.742 54.9775 139.129 54.9775C140.618 54.9775 141.573 55.5538 142.268 56.5298H142.31V55.2163H143.919V64.9451C143.919 67.6498 142.128 68.9217 139.404 68.9217C136.679 68.9217 135.226 67.8471 135.05 66.0768H135.055ZM142.435 59.9717C142.435 57.7238 141.48 56.3325 139.295 56.3325C137.364 56.3325 136.394 57.8432 136.394 60.0703C136.394 62.2975 137.406 63.7926 139.316 63.7926C141.682 63.7926 142.44 62.1417 142.44 59.9717H142.435Z" fill="#231F20"/>
<path d="M145.933 60.3714C145.933 57.3863 147.879 54.9619 150.806 54.9619C153.888 54.9619 155.538 57.35 155.538 60.7504H147.583C147.702 62.8373 148.834 64.4311 150.904 64.4311C152.393 64.4311 153.39 63.7147 153.748 62.3234H155.32C154.843 64.5297 153.234 65.7861 150.904 65.7861C147.765 65.7861 145.933 63.3617 145.933 60.3766V60.3714ZM147.624 59.5356H153.81C153.712 57.4849 152.658 56.2338 150.806 56.2338C148.953 56.2338 147.863 57.6667 147.624 59.5356Z" fill="#231F20"/>
<path d="M160.488 60.3714C160.488 57.3863 162.398 54.9619 165.46 54.9619C168.522 54.9619 170.411 57.3863 170.411 60.3714C170.411 63.3565 168.542 65.7809 165.46 65.7809C162.377 65.7809 160.488 63.3565 160.488 60.3714ZM168.76 60.3714C168.76 58.1027 167.645 56.2909 165.46 56.2909C163.275 56.2909 162.139 58.1027 162.139 60.3714C162.139 62.64 163.27 64.4311 165.46 64.4311C167.65 64.4311 168.76 62.64 168.76 60.3714Z" fill="#231F20"/>
<path d="M171.562 55.216H172.974V53.5651C172.974 51.7948 173.986 51.1562 175.698 51.1562C176.036 51.1562 176.295 51.177 176.513 51.1978V52.5683C176.233 52.5476 176.155 52.5476 175.994 52.5476C174.962 52.5476 174.583 52.8071 174.583 53.6429V55.216H176.492V56.5294H174.583V65.5002H172.974V56.5294H171.562V55.216Z" fill="#231F20"/>
<path d="M181.366 60.6879H183.115C183.353 63.0967 184.822 64.3478 187.51 64.3478C189.477 64.3478 190.888 63.4549 190.888 61.6846C190.888 59.7379 189.181 59.2758 186.633 58.7203C184.127 58.1648 181.978 57.4484 181.978 54.7645C181.978 52.4179 183.924 51.0059 186.81 51.0059C190.37 51.0059 191.838 52.8177 192.196 55.4393H190.504C190.245 53.4095 188.932 52.3972 186.846 52.3972C184.915 52.3972 183.644 53.2122 183.644 54.6866C183.644 56.2959 185.237 56.7735 187.365 57.194C190.131 57.7495 192.653 58.4296 192.653 61.6275C192.653 64.2907 190.484 65.7859 187.422 65.7859C183.426 65.7859 181.516 63.5587 181.355 60.6931L181.366 60.6879Z" fill="#231F20"/>
<path d="M201.407 65.5005V64.0885H201.365C200.629 65.0852 199.757 65.7393 198.262 65.7393C196.155 65.7393 194.801 64.4674 194.801 62.339V55.2163H196.41V62.2974C196.41 63.6316 197.266 64.4051 198.714 64.4051C200.343 64.4051 201.397 63.1696 201.397 61.5395V55.2163H203.005V65.5005H201.397H201.407Z" fill="#231F20"/>
<path d="M207.214 56.9293H207.256C207.874 55.9325 208.948 55.0967 210.318 55.0967C210.619 55.0967 210.774 55.1382 210.972 55.2161V56.7683H210.909C210.671 56.6905 210.51 56.6697 210.193 56.6697C208.6 56.6697 207.209 57.8637 207.209 59.7949V65.5055H205.601V55.2213H207.209V56.9293H207.214Z" fill="#231F20"/>
<path d="M212.165 66.0768H213.655C213.816 67.2086 214.89 67.6498 216.478 67.6498C218.367 67.6498 219.42 66.7932 219.42 65.0022V63.5486H219.379C218.621 64.5246 217.806 65.1424 216.338 65.1424C213.676 65.1424 211.844 63.0139 211.844 60.0496C211.844 56.8465 213.852 54.9775 216.239 54.9775C217.729 54.9775 218.683 55.5538 219.379 56.5298H219.42V55.2163H221.029V64.9451C221.029 67.6498 219.239 68.9217 216.514 68.9217C213.79 68.9217 212.337 67.8471 212.16 66.0768H212.165ZM219.54 59.9717C219.54 57.7238 218.585 56.3325 216.4 56.3325C214.47 56.3325 213.499 57.8432 213.499 60.0703C213.499 62.2975 214.511 63.7926 216.421 63.7926C218.787 63.7926 219.545 62.1417 219.545 59.9717H219.54Z" fill="#231F20"/>
<path d="M223.042 60.3714C223.042 57.3863 224.988 54.9619 227.915 54.9619C230.997 54.9619 232.648 57.35 232.648 60.7504H224.692C224.812 62.8373 225.943 64.4311 228.013 64.4311C229.503 64.4311 230.499 63.7147 230.857 62.3234H232.43C231.952 64.5297 230.344 65.7861 228.013 65.7861C224.874 65.7861 223.042 63.3617 223.042 60.3766V60.3714ZM224.729 59.5356H230.914C230.816 57.4849 229.762 56.2338 227.91 56.2338C226.057 56.2338 224.967 57.6667 224.729 59.5356Z" fill="#231F20"/>
<path d="M234.033 60.3714C234.033 57.3863 235.943 54.9619 239.005 54.9619C242.066 54.9619 243.955 57.3863 243.955 60.3714C243.955 63.3565 242.087 65.7809 239.005 65.7809C235.922 65.7809 234.033 63.3565 234.033 60.3714ZM242.305 60.3714C242.305 58.1027 241.189 56.2909 239.005 56.2909C236.82 56.2909 235.683 58.1027 235.683 60.3714C235.683 62.64 236.815 64.4311 239.005 64.4311C241.195 64.4311 242.305 62.64 242.305 60.3714Z" fill="#231F20"/>
<path d="M247.578 56.5713H247.62C248.357 55.5953 249.389 54.9775 250.879 54.9775C253.027 54.9775 254.34 56.1508 254.34 58.2793V65.5006H252.731V58.4195C252.731 57.0853 251.854 56.3325 250.406 56.3325C248.777 56.3325 247.583 57.485 247.583 59.1774V65.5006H245.975V55.2163H247.583V56.5713H247.578Z" fill="#231F20"/>
<path d="M256.208 62.1624H257.858C258.076 63.9535 259.27 64.4518 260.801 64.4518C262.492 64.4518 263.188 63.7146 263.188 62.7594C263.188 61.6069 262.394 61.3058 260.505 60.9113C258.476 60.496 256.67 60.0755 256.67 57.8276C256.67 56.1144 257.983 55.0034 260.37 55.0034C262.913 55.0034 264.169 56.2182 264.407 58.2273H262.757C262.596 56.8723 261.865 56.2805 260.334 56.2805C258.803 56.2805 258.263 56.9346 258.263 57.7549C258.263 58.871 259.259 59.0891 261.029 59.4473C263.094 59.8626 264.828 60.3246 264.828 62.6919C264.828 64.7581 263.136 65.8172 260.77 65.8172C257.946 65.8172 256.374 64.483 256.218 62.178L256.208 62.1624Z" fill="#231F20"/>
<path fill-rule="evenodd" clip-rule="evenodd" d="M276.198 52.6408C276.261 51.9711 274.631 49.8841 272.929 49.8167C272.171 49.7855 272.846 52.729 273.375 54.5305L275.695 63.3507C275.695 63.3507 276.281 63.6674 276.702 63.5532C277.117 63.4338 277.568 62.8264 277.568 62.8264C277.568 62.8264 276.479 57.2404 276.255 55.4078C276.032 53.5753 276.193 52.7083 276.198 52.6408Z" fill="#EF4425"/>
<path fill-rule="evenodd" clip-rule="evenodd" d="M288.912 55.0029L287.459 49.5C286.904 49.6194 285.337 51.5091 285.337 51.5091C285.337 51.5091 287.023 56.8355 287.055 57.1833C287.081 57.5311 288.918 54.9977 288.918 54.9977L288.912 55.0029Z" fill="#EF4425"/>
<path fill-rule="evenodd" clip-rule="evenodd" d="M286.992 57.5936L288.009 60.5891C288.009 60.5891 288.414 60.911 289.001 60.7345C289.582 60.5579 289.903 59.9506 289.903 59.9506L289.872 58.933L289.291 56.9551L288.767 55.5586L286.992 57.5936Z" fill="#EF4425"/>
<path fill-rule="evenodd" clip-rule="evenodd" d="M276.053 50.3723L278.238 51.6546L279.576 52.8746L280.272 53.6637L280.998 54.0426L283.162 53.5339L281.875 54.188L281.32 55.0913L281.813 55.4132L283.443 55.6727L283.821 53.5754L283.718 53.3989L283.967 53.3418L284.958 50.7824L284.403 47.2315C284.403 47.2315 282.394 46.9096 282.218 47.029C282.047 47.1432 275.44 48.9498 275.44 48.9498L276.053 50.3775V50.3723Z" fill="#EF4425"/>
<path fill-rule="evenodd" clip-rule="evenodd" d="M279.867 57.7961C279.867 57.7078 280.36 55.1173 280.36 55.1173L280.448 54.567L278.061 52.0647L276.141 50.9019L276.084 51.4262L276.229 51.5144L277.018 55.2419L278.938 62.2555L280.075 62.4891C280.075 62.4891 279.872 57.8895 279.872 57.8013L279.867 57.7961Z" fill="#EF4425"/>
<path fill-rule="evenodd" clip-rule="evenodd" d="M283.266 56.9499L280.91 55.813L280.303 62.6864L281.029 63.1796L283.354 57.2718L283.266 56.9499Z" fill="#EF4425"/>
<path fill-rule="evenodd" clip-rule="evenodd" d="M285.103 63.1798C285.16 63.294 285.305 63.2681 285.425 63.3823C285.539 63.4965 287.635 62.2765 287.635 62.2765L287.578 61.6068L287.319 60.8489L286.706 58.8086L286.592 58.1389L286.245 58.3414L286.566 57.6405L285.43 53.5082L285.082 52.5166L284.792 53.2434L283.51 57.2616C283.51 57.2616 282.519 61.8041 282.519 61.8871C282.519 61.9702 283.359 62.3232 283.359 62.3232L283.769 61.7729L284.029 61.9183C284.029 61.9183 285.046 63.0552 285.103 63.1694V63.1798Z" fill="#EF4425"/>
<path fill-rule="evenodd" clip-rule="evenodd" d="M288.746 62.4683L286.406 63.4962C286.406 63.4962 286.406 64.4099 286.234 64.467C286.063 64.5241 286.976 66.5799 286.976 66.5799L290.059 67.8362L289.659 65.2093L288.746 62.4683Z" fill="#EF4425"/>
<path fill-rule="evenodd" clip-rule="evenodd" d="M288.004 74.2892L285.093 69.2068L283.894 68.6357L283.78 69.321L284.009 70.0634V70.92L285.493 78.4008C285.493 78.4008 285.949 80.0569 286.235 79.9998C286.52 79.9427 288.861 79.3145 288.861 79.3145C288.861 79.3145 288.404 77.0303 288.404 76.6877C288.404 76.345 288.004 74.2892 288.004 74.2892Z" fill="#EF4425"/>
<path fill-rule="evenodd" clip-rule="evenodd" d="M289.032 76.1685L289.774 79.1951L291.03 79.3093L292.001 78.9666L289.032 76.1685Z" fill="#EF4425"/>
<path fill-rule="evenodd" clip-rule="evenodd" d="M287.947 70.3491C287.947 70.5204 288.404 73.2615 288.404 73.4899C288.404 73.7183 291.943 77.2589 291.943 77.2589L291.658 75.2602L290.801 69.5496L287.719 67.8936C287.719 67.8936 287.947 70.1778 287.947 70.3491Z" fill="#EF4425"/>
<path fill-rule="evenodd" clip-rule="evenodd" d="M286.811 67.208L286.583 67.1509L286.069 67.3793L285.612 68.2359C285.612 68.2359 286.126 69.0925 286.126 69.3209C286.126 69.5493 286.583 70.2917 286.583 70.2917C286.583 70.2917 286.64 70.9199 286.64 71.1483C286.64 71.3767 287.496 71.7764 287.496 71.7764L287.382 70.7485L286.925 69.2067L286.811 67.208Z" fill="#EF4425"/>
<path fill-rule="evenodd" clip-rule="evenodd" d="M284.414 67.5404L284.009 67.4106V67.9506L284.414 67.7429V67.5404Z" fill="#EF4425"/>
<path fill-rule="evenodd" clip-rule="evenodd" d="M282.306 65.4639L281.98 65.5417L281.896 66.0868L282.104 66.4606L282.519 66.6216L282.306 65.4639Z" fill="#EF4425"/>
<path fill-rule="evenodd" clip-rule="evenodd" d="M284.429 64.4669L284.222 64.3008L283.843 64.5084L284.133 64.9238L284.429 64.4669Z" fill="#EF4425"/>
<path fill-rule="evenodd" clip-rule="evenodd" d="M283.058 66.3774L282.934 66.746L282.353 67.0835L282.809 67.3742L283.551 67.2496L283.473 66.7928L283.058 66.3774Z" fill="#EF4425"/>
<path fill-rule="evenodd" clip-rule="evenodd" d="M282.062 64.0102C281.979 64.1763 282.602 64.2179 282.602 64.2179L282.976 63.8026L282.519 63.3457C282.519 63.3457 282.145 63.8441 282.062 64.0102Z" fill="#EF4425"/>
<path fill-rule="evenodd" clip-rule="evenodd" d="M280.153 65.6302C280.277 65.6302 280.527 65.4225 280.527 65.4225L279.945 65.1733C279.945 65.1733 280.028 65.6302 280.153 65.6302Z" fill="#EF4425"/>
<path fill-rule="evenodd" clip-rule="evenodd" d="M284.891 66.5696L284.683 66.4087L284.31 66.6112L284.6 67.0317L284.891 66.5696Z" fill="#EF4425"/>
<path fill-rule="evenodd" clip-rule="evenodd" d="M283.033 65.3395L282.675 65.1733C282.675 65.1733 282.67 65.4433 282.659 65.5471C282.659 65.5887 283.033 65.3395 283.033 65.3395Z" fill="#EF4425"/>
<path fill-rule="evenodd" clip-rule="evenodd" d="M278.28 46.9408C279.862 46.9408 281.144 45.6585 281.144 44.0751C281.144 42.4918 279.862 41.2095 278.28 41.2095C276.697 41.2095 275.415 42.4918 275.415 44.0751C275.415 45.6585 276.697 46.9408 278.28 46.9408Z" fill="#EF4425"/>
</g>
<defs>
<clipPath id="clip0_3820_1086">
<rect width="292" height="80" fill="white"/>
</clipPath>
</defs>
</svg>
