<svg width="149" height="140" viewBox="0 0 149 140" fill="none" xmlns="http://www.w3.org/2000/svg">
<g clip-path="url(#clip0_2670_4841)">
<path d="M16.9749 59.7968V99.6754C16.9749 103.064 18.781 106.197 21.7106 107.896L67.6172 134.438C69.0841 135.287 70.7206 135.707 72.3529 135.707C73.9851 135.707 75.6259 135.283 77.0886 134.438L122.995 107.896C125.929 106.202 127.731 103.068 127.731 99.6754V60.629C127.731 61.181 16.9707 59.801 16.9707 59.801L16.9749 59.7968ZM122.385 58.5909H22.3253V46.5916C22.3253 45.1182 23.1139 43.7468 24.3858 43.0122L70.2924 16.466C70.9199 16.1051 71.6322 15.9141 72.3571 15.9141C73.0821 15.9141 73.7944 16.1051 74.4218 16.466L120.328 43.008C121.6 43.7425 122.393 45.114 122.393 46.5874V58.5866L122.385 58.5909Z" fill="#43BBC6"/>
<path d="M72.3581 89.26V135.712C70.7216 135.712 69.0851 135.287 67.6224 134.442L21.7158 107.9C18.782 106.206 16.9801 103.072 16.9801 99.6798V95.6036C13.4867 95.6036 10.6504 92.7672 10.6504 89.2643H72.3581V89.26Z" fill="#2D8E98"/>
<path d="M16.9754 89.2601V95.5994C13.482 95.5994 0 92.8735 0 89.3705L16.9754 89.2559V89.2601Z" fill="#730E32"/>
<path d="M127.736 95.5993C131.234 95.5993 148.07 92.763 148.07 89.26H127.736V95.5993Z" fill="#730E32"/>
<path d="M69.8853 40.6812C69.8726 40.0231 69.5037 39.8023 68.9611 39.8023C68.287 39.8023 67.9944 40.0952 67.9944 40.4179C67.9944 40.8001 68.2446 40.9614 68.6813 41.0931C69.4868 41.3266 70.9664 41.6196 72.0348 42.0739C73.366 42.6301 73.9553 43.5855 73.9553 44.8635C73.9553 47.4621 71.844 48.5448 68.8593 48.5448C66.3113 48.5448 63.9668 47.7508 63.9668 44.9952H67.9817C67.9817 45.2881 68.0411 45.5811 68.2022 45.8019C68.3633 46.0057 68.6261 46.1373 69.0247 46.1373C69.6394 46.1373 70.0337 45.7425 70.0337 45.2712C70.0337 44.8763 69.7242 44.6682 69.3299 44.5536L66.3579 43.6746C64.7299 43.1906 64.1618 42.2055 64.1618 40.8426C64.1618 38.6431 65.934 37.3948 69.0247 37.3948C71.6617 37.3948 73.6374 38.2185 73.6374 40.6812H69.8853Z" fill="#AB2227"/>
<path d="M76.7675 40.5199H74.1602V37.675H83.5679V40.5199H80.9605V48.2689H76.7675V40.5199Z" fill="#AB2227"/>
<path d="M89.2559 37.3948C92.902 37.3948 94.7208 39.6706 94.7208 42.9698C94.7208 46.269 92.9062 48.5448 89.2559 48.5448C85.6056 48.5448 83.791 46.269 83.791 42.9698C83.791 39.6706 85.6056 37.3948 89.2559 37.3948ZM89.2559 45.7892C89.9003 45.7892 90.3836 45.424 90.3836 42.9741C90.3836 40.5241 89.93 40.1589 89.2559 40.1589C88.5818 40.1589 88.1281 40.5835 88.1281 42.9741C88.1281 45.3646 88.6115 45.7892 89.2559 45.7892Z" fill="#AB2227"/>
<path d="M95.7441 37.675H101.896C104.444 37.675 105.648 39.1569 105.648 41.1525C105.648 43.2671 104.27 44.7022 101.311 44.7022H99.9329V48.2689H95.7441V37.675ZM100.136 42.2947C101.222 42.2947 101.629 41.8998 101.629 41.1525C101.629 40.4052 101.277 40.0825 100.37 40.0825H99.9286V42.299H100.132L100.136 42.2947Z" fill="#AB2227"/>
<path d="M65.8245 54.6761V50.1414H64.1074V49.5342H68.2495V50.1414H66.5282V54.6761H65.8245Z" fill="#221F1F"/>
<path d="M70.1752 49.5342V51.7421H72.6129V49.5342H73.3252V54.6761H72.6129V52.3535H70.1752V54.6761H69.4629V49.5342H70.1752Z" fill="#221F1F"/>
<path d="M74.9902 49.5342H78.2123V50.1414H75.7025V51.7421H78.0936V52.3408H75.7025V54.052H78.2717V54.6761H74.9902V49.5342Z" fill="#221F1F"/>
<path d="M82.4437 49.534H84.2794C84.9069 49.534 85.2546 49.5977 85.5725 49.9119C85.793 50.1242 85.9329 50.4257 85.9329 50.8291C85.9329 51.6783 85.3139 51.8991 85.0638 51.9882C85.3606 52.0732 86.0855 52.2855 86.0855 53.2705C86.0855 53.9669 85.6361 54.3236 85.4665 54.4382C85.1104 54.6717 84.7119 54.6717 84.3091 54.6717H82.4395V49.5298L82.4437 49.534ZM83.1348 51.708H84.1311C84.3727 51.708 85.1952 51.708 85.1952 50.897C85.1952 50.086 84.5465 50.12 84.1565 50.12H83.1305V51.708H83.1348ZM83.1348 54.0985H84.3515C84.9112 54.0985 85.3606 53.8013 85.3606 53.2068C85.3606 52.6931 85.0044 52.3152 84.3812 52.3152H83.1348V54.0943V54.0985Z" fill="#221F1F"/>
<path d="M87.6035 49.5342H88.3073V54.0435H90.6984V54.6761H87.6035V49.5342Z" fill="#221F1F"/>
<path d="M91.9355 49.5342H95.1577V50.1414H92.6478V51.7421H95.0347V52.3408H92.6478V54.052H95.2128V54.6761H91.9355V49.5342Z" fill="#221F1F"/>
<path d="M96.6074 49.5342H99.8295V50.1414H97.3197V51.7421H99.7108V52.3408H97.3197V54.052H99.8889V54.6761H96.6074V49.5342Z" fill="#221F1F"/>
<path d="M101.326 49.5342H102.814C103.505 49.5342 104.315 49.5342 104.883 50.205C105.337 50.74 105.515 51.4449 105.515 52.1497C105.515 53.2622 105.053 53.9458 104.663 54.2558C104.158 54.6761 103.527 54.6761 102.772 54.6761H101.33V49.5342H101.326ZM102.038 54.0944H102.734C103.226 54.0944 103.734 54.0647 104.078 53.8099C104.731 53.3174 104.752 52.4767 104.752 52.1795C104.752 51.9884 104.739 51.1095 104.256 50.5787C103.929 50.2135 103.518 50.1286 102.891 50.1286H102.038V54.0944Z" fill="#221F1F"/>
<path d="M45.8937 33.4331H54.6443L60.8384 39.5177L60.8681 48.2517L54.763 54.4892L45.8937 54.5783L39.8184 48.3154V39.5177L45.8937 33.4331Z" fill="#AB2227"/>
<path d="M54.9419 45.8103V42.2904C54.9419 41.8955 54.573 41.577 54.1236 41.577C53.6742 41.577 53.3054 41.8955 53.3054 42.2904V45.7551L52.9959 45.7891V45.7424C51.3297 45.3857 50.3419 47.3219 50.3419 47.3219L50.096 47.1903C51.1008 45.2371 52.6397 45.3772 52.9959 45.4409L52.9832 44.4049V38.4053C52.9832 38.0656 52.7076 37.7853 52.3642 37.7853C52.0208 37.7853 51.7452 38.0613 51.7452 38.4053V43.441C51.6138 43.4368 51.4739 43.4325 51.3297 43.4241V37.7514C51.3297 37.3522 51.0075 37.0295 50.609 37.0295H50.5708C50.1723 37.0295 49.8501 37.3522 49.8501 37.7514V43.4113C49.7144 43.4113 49.5787 43.4156 49.4473 43.4198V38.5878C49.4473 38.1887 49.1251 37.866 48.7266 37.866H48.7139C48.3153 37.866 47.9931 38.1887 47.9931 38.5878V43.5514C47.8871 43.5727 47.7896 43.5939 47.6963 43.6151V39.6791C47.6963 39.3606 47.4377 39.1016 47.1198 39.1016C46.8018 39.1016 46.5432 39.3606 46.5432 39.6791V46.5067C46.5262 46.7742 46.31 50.6848 48.7478 51.3599H52.6694C52.6694 51.3599 55.209 50.188 54.9419 45.8103Z" fill="white"/>
<path d="M107.445 50.2645C107.445 50.7061 107.102 51.05 106.653 51.05C106.203 51.05 105.855 50.7061 105.855 50.2645C105.855 49.8229 106.207 49.4917 106.653 49.4917C107.098 49.4917 107.445 49.8356 107.445 50.2645ZM106.055 50.2645C106.055 50.6084 106.309 50.8844 106.657 50.8844C107.004 50.8844 107.246 50.6084 107.246 50.2687C107.246 49.929 106.996 49.6446 106.653 49.6446C106.309 49.6446 106.055 49.9248 106.055 50.2645ZM106.53 50.6721H106.352V49.8993C106.424 49.8866 106.521 49.8738 106.648 49.8738C106.792 49.8738 106.86 49.8993 106.915 49.929C106.958 49.963 106.992 50.0225 106.992 50.0989C106.992 50.1838 106.924 50.2517 106.831 50.2772V50.2857C106.907 50.3154 106.949 50.3706 106.97 50.4725C106.996 50.5914 107.009 50.6381 107.026 50.6679H106.831C106.805 50.6381 106.792 50.5702 106.771 50.4768C106.759 50.3919 106.712 50.3536 106.61 50.3536H106.525V50.6636L106.53 50.6721ZM106.534 50.2305H106.619C106.716 50.2305 106.797 50.1965 106.797 50.1159C106.797 50.0437 106.746 49.997 106.631 49.997C106.585 49.997 106.551 50.0012 106.534 50.0055V50.2263V50.2305Z" fill="black"/>
<path d="M36.75 94.644H39.3065C40.7183 94.644 41.2567 95.455 41.2567 96.2915C41.2567 97.0176 40.9091 97.4889 40.5105 97.6885C40.9048 97.854 41.4221 98.3084 41.4221 99.1576C41.4221 100.262 40.6377 101.085 39.3913 101.085H36.75V94.644ZM39.1623 97.1832C39.7644 97.1832 40.0103 96.8859 40.0103 96.4359C40.0103 95.9858 39.6838 95.7183 39.1963 95.7183H37.9922V97.1832H39.1623ZM37.9922 100.007H39.1327C39.8152 100.007 40.1247 99.6926 40.1247 99.1066C40.1247 98.5886 39.8195 98.2574 39.1242 98.2574H37.9922V100.007Z" fill="white"/>
<path d="M46.5976 98.304H43.7995V99.9387H46.8859L46.7375 101.081H42.5742V94.6396H46.7206V95.7818H43.7995V97.1618H46.5976V98.304Z" fill="white"/>
<path d="M50.2051 94.644H52.6259C53.8681 94.644 54.7118 95.4126 54.7118 96.6397C54.7118 98.0366 53.7494 98.682 52.5962 98.682H51.4727V101.09H50.2093V94.6483L50.2051 94.644ZM51.4727 97.5696H52.4394C53.0244 97.5696 53.4399 97.3233 53.4399 96.6652C53.4399 96.007 53.0032 95.7523 52.469 95.7523H51.477V97.5696H51.4727Z" fill="white"/>
<path d="M57.0658 98.5035V101.081H55.832V94.6396H58.4012C59.6774 94.6396 60.3642 95.4124 60.3642 96.4102C60.3642 97.2764 59.936 97.7435 59.5163 97.9346C59.8046 98.0535 60.2412 98.3846 60.2412 99.5353V99.8538C60.2412 100.287 60.2412 100.779 60.326 101.081H59.1262C59.0245 100.801 59.0033 100.317 59.0033 99.633V99.5396C59.0033 98.8347 58.8422 98.5035 57.901 98.5035H57.07H57.0658ZM57.0658 97.3953H58.1257C58.8167 97.3953 59.0838 97.1066 59.0838 96.5673C59.0838 96.0281 58.7743 95.7521 58.1553 95.7521H57.0658V97.3996V97.3953Z" fill="white"/>
<path d="M65.6757 98.304H62.8776V99.9387H65.964L65.8157 101.081H61.6523V94.6396H65.7987V95.7818H62.8776V97.1618H65.6757V98.304Z" fill="white"/>
<path d="M67.0371 94.644H69.4579C70.7001 94.644 71.5438 95.4126 71.5438 96.6397C71.5438 98.0366 70.5814 98.682 69.4283 98.682H68.3048V101.09H67.0414V94.6483L67.0371 94.644ZM68.3048 97.5696H69.2714C69.8565 97.5696 70.2719 97.3233 70.2719 96.6652C70.2719 96.007 69.8353 95.7523 69.3011 95.7523H68.309V97.5696H68.3048Z" fill="white"/>
<path d="M73.2567 99.5948L72.7989 101.081H71.5566L73.5408 94.6396H75.1306L77.2038 101.081H75.8768L75.3977 99.5948H73.261H73.2567ZM75.1179 98.4526C74.7024 97.0939 74.4396 96.2234 74.2954 95.646H74.287C74.1428 96.2829 73.8503 97.2934 73.5196 98.4526H75.1179Z" fill="white"/>
<path d="M79.3568 98.5035V101.081H78.123V94.6396H80.6923C81.9684 94.6396 82.6552 95.4124 82.6552 96.4102C82.6552 97.2764 82.227 97.7435 81.8073 97.9346C82.0956 98.0535 82.5323 98.3846 82.5323 99.5353V99.8538C82.5323 100.287 82.5323 100.779 82.617 101.081H81.4172C81.3155 100.801 81.2943 100.317 81.2943 99.633V99.5396C81.2943 98.8347 81.1332 98.5035 80.192 98.5035H79.361H79.3568ZM79.3568 97.3953H80.4167C81.1077 97.3953 81.3748 97.1066 81.3748 96.5673C81.3748 96.0281 81.0653 95.7521 80.4464 95.7521H79.3568V97.3996V97.3953Z" fill="white"/>
<path d="M87.9687 98.304H85.1706V99.9387H88.257L88.1086 101.081H83.9453V94.6396H88.0917V95.7818H85.1706V97.1618H87.9687V98.304Z" fill="white"/>
<path d="M89.3281 94.644H91.6472C93.3515 94.644 94.4623 95.8796 94.4623 97.7819C94.4623 99.6841 93.3812 101.085 91.5921 101.085H89.3281V94.644ZM90.5915 99.9601H91.5412C92.6605 99.9601 93.1565 99.0429 93.1565 97.7861C93.1565 96.7331 92.6944 95.7692 91.5454 95.7692H90.5915V99.9601Z" fill="white"/>
<path d="M99.1299 95.7818H97.3535V94.6396H102.165V95.7818H100.398V101.081H99.1342V95.7818H99.1299Z" fill="white"/>
<path d="M108.313 97.8411C108.313 99.6329 107.338 101.178 105.438 101.178C103.539 101.178 102.645 99.7094 102.645 97.8666C102.645 96.0238 103.704 94.5547 105.523 94.5547C107.232 94.5547 108.317 95.8752 108.317 97.8454L108.313 97.8411ZM103.946 97.8326C103.946 99.0894 104.446 100.041 105.485 100.041C106.609 100.041 107.007 99.0045 107.007 97.8539C107.007 96.6352 106.553 95.6799 105.464 95.6799C104.374 95.6799 103.946 96.58 103.946 97.8326Z" fill="white"/>
<path d="M48.3621 109.386C48.4935 110.032 48.9175 110.316 49.5916 110.316C50.2657 110.316 50.5539 110.023 50.5539 109.552C50.5539 109.029 50.2741 108.8 49.2736 108.545C47.6837 108.134 47.2894 107.497 47.2894 106.626C47.2894 105.505 48.0526 104.741 49.4347 104.741C50.9864 104.741 51.6054 105.662 51.6902 106.601H50.4183C50.3589 106.206 50.1597 105.773 49.405 105.773C48.892 105.773 48.5825 106.006 48.5825 106.465C48.5825 106.923 48.8327 107.093 49.7739 107.335C51.4739 107.777 51.847 108.473 51.847 109.382C51.847 110.558 51.0373 111.365 49.494 111.365C47.9508 111.365 47.2301 110.558 47.0859 109.386H48.3578H48.3621Z" fill="white"/>
<path d="M54.2079 109.785L53.75 111.271H52.5078L54.492 104.83H56.0818L58.155 111.271H56.828L56.3489 109.785H54.2121H54.2079ZM56.0691 108.643C55.6536 107.284 55.3908 106.414 55.2466 105.836H55.2381C55.094 106.473 54.8014 107.484 54.4708 108.643H56.0691Z" fill="white"/>
<path d="M59.9612 111.276L57.8965 104.834H59.2532L60.1223 107.811C60.3851 108.711 60.5886 109.475 60.7201 110.134H60.737C60.8557 109.531 61.0847 108.745 61.3645 107.832L62.276 104.834H63.5649L61.445 111.276H59.9527H59.9612Z" fill="white"/>
<path d="M68.4707 108.494H65.6725V110.129H68.759L68.6106 111.271H64.4473V104.83H68.5936V105.972H65.6725V107.352H68.4707V108.494Z" fill="white"/>
<path d="M73.1767 109.785L72.7188 111.271H71.4766L73.4607 104.83H75.0506L77.1237 111.271H75.7967L75.3177 109.785H73.1809H73.1767ZM75.0378 108.643C74.6224 107.284 74.3595 106.414 74.2154 105.836H74.2069C74.0627 106.473 73.7702 107.484 73.4395 108.643H75.0378Z" fill="white"/>
<path d="M80.3027 104.834H81.5661V110.134H84.4788L84.3346 111.276H80.3027V104.834Z" fill="white"/>
<path d="M86.6618 104.834V111.276H85.3984V104.834H86.6618Z" fill="white"/>
<path d="M88.2305 104.834H92.3132V105.977H89.4684V107.556H92.1352V108.698H89.4684V111.28H88.2347V104.839L88.2305 104.834Z" fill="white"/>
<path d="M97.4433 108.494H94.6452V110.129H97.7316L97.5832 111.271H93.4199V104.83H97.5663V105.972H94.6452V107.352H97.4433V108.494Z" fill="white"/>
<path d="M119.236 58.5528H23.043V14.4748L71.1372 1.04883L119.236 15.583V58.5528Z" fill="white"/>
<path d="M71.4591 5.6642L117.79 16.2453V58.4466L25.031 58.6334V16.3727L71.4591 5.6642ZM71.4549 0L70.2254 0.284484L23.7931 10.993L19.5195 11.978V64.166L25.0438 64.1532L117.802 63.9664L123.301 63.9537V11.8422L119.015 10.8613L72.6844 0.280238L71.4549 0Z" fill="#AB2227"/>
<path d="M67.0531 30.5843C67.0404 29.9346 66.68 29.7181 66.1458 29.7181C65.4844 29.7181 65.1961 30.0068 65.1961 30.3252C65.1961 30.6989 65.442 30.8602 65.8745 30.9876C66.6673 31.2169 68.1215 31.5056 69.1687 31.9515C70.4787 32.4992 71.0553 33.4376 71.0553 34.6902C71.0553 37.242 68.9821 38.3078 66.0441 38.3078C63.5384 38.3078 61.2363 37.5308 61.2363 34.8175H65.1792C65.1792 35.1063 65.2385 35.395 65.3954 35.6116C65.5523 35.8111 65.8151 35.9427 66.2009 35.9427C66.8072 35.9427 67.193 35.5521 67.193 35.0935C67.193 34.7029 66.892 34.5033 66.5019 34.3887L63.5808 33.5225C61.9825 33.0469 61.4229 32.0789 61.4229 30.7414C61.4229 28.5801 63.1654 27.353 66.2009 27.353C68.7913 27.353 70.7331 28.1598 70.7331 30.5843H67.0488H67.0531Z" fill="#AB2227"/>
<path d="M73.8208 30.427H71.2559V27.6289H80.4982V30.427H77.9375V38.0359H73.8208V30.427Z" fill="#AB2227"/>
<path d="M86.09 27.353C89.6725 27.353 91.4574 29.5864 91.4574 32.8304C91.4574 36.0744 89.6725 38.3078 86.09 38.3078C82.5075 38.3078 80.7227 36.0744 80.7227 32.8304C80.7227 29.5864 82.5075 27.353 86.09 27.353ZM86.09 35.5988C86.7217 35.5988 87.1966 35.2379 87.1966 32.8304C87.1966 30.4229 86.7514 30.062 86.09 30.062C85.4286 30.062 84.9835 30.4781 84.9835 32.8304C84.9835 35.1827 85.4583 35.5988 86.09 35.5988Z" fill="#AB2227"/>
<path d="M92.4609 27.6289H98.5066C101.012 27.6289 102.191 29.0853 102.191 31.047C102.191 33.1233 100.838 34.5372 97.9301 34.5372H96.5776V38.0402H92.4609V27.6332V27.6289ZM96.7811 32.1679C97.8453 32.1679 98.248 31.7773 98.248 31.0427C98.248 30.3081 97.9004 29.9897 97.0101 29.9897H96.5776V32.1679H96.7811Z" fill="#AB2227"/>
<path d="M63.0686 44.337V39.8786H61.377V39.2842H65.447V39.8786H63.7596V44.337H63.0686Z" fill="#221F1F"/>
<path d="M67.3382 39.2842V41.4539H69.7336V39.2842H70.4331V44.337H69.7336V42.0526H67.3382V44.337H66.6387V39.2842H67.3382Z" fill="#221F1F"/>
<path d="M72.0742 39.2842H75.2412V39.8786H72.7738V41.4539H75.1183V42.0399H72.7738V43.7213H75.2963V44.337H72.0742V39.2842Z" fill="#221F1F"/>
<path d="M79.3945 39.2842H81.1964C81.8111 39.2842 82.1545 39.3479 82.4683 39.6536C82.6845 39.8616 82.8244 40.1589 82.8244 40.558C82.8244 41.3902 82.2181 41.6068 81.9722 41.7002C82.2648 41.7851 82.977 41.9931 82.977 42.9612C82.977 43.6449 82.5361 43.9973 82.3707 44.1077C82.0231 44.337 81.6288 44.337 81.2303 44.337H79.3945V39.2842ZM80.0729 41.4157H81.0522C81.2896 41.4157 82.0994 41.4157 82.0994 40.6174C82.0994 39.8192 81.4635 39.8531 81.0777 39.8531H80.0729V41.4157ZM80.0729 43.768H81.2684C81.8196 43.768 82.2605 43.475 82.2605 42.8933C82.2605 42.388 81.9129 42.0186 81.2981 42.0186H80.0771V43.768H80.0729Z" fill="#221F1F"/>
<path d="M84.4668 39.2842H85.1579V43.7128H87.5066V44.337H84.4668V39.2842Z" fill="#221F1F"/>
<path d="M88.7227 39.2842H91.8854V39.8786H89.4222V41.4539H91.7667V42.0399H89.4222V43.7213H91.9448V44.337H88.7227V39.2842Z" fill="#221F1F"/>
<path d="M93.3145 39.2842H96.4815V39.8786H94.014V41.4539H96.3627V42.0399H94.014V43.7213H96.5366V44.337H93.3145V39.2842Z" fill="#221F1F"/>
<path d="M97.9473 39.2842H99.4057C100.084 39.2842 100.881 39.2842 101.441 39.9423C101.886 40.4646 102.064 41.1609 102.064 41.853C102.064 42.9443 101.61 43.6151 101.224 43.9251C100.728 44.337 100.105 44.337 99.3675 44.337H97.9473V39.2842ZM98.6468 43.7595H99.3336C99.8169 43.7595 100.317 43.7298 100.652 43.4793C101.297 42.9952 101.318 42.1715 101.318 41.8785C101.318 41.6874 101.305 40.8297 100.83 40.3032C100.508 39.9466 100.105 39.8616 99.4905 39.8616H98.651V43.7595H98.6468Z" fill="#221F1F"/>
<path d="M43.4772 23.4636H52.0794L58.1675 29.442L58.1972 38.0233L52.1981 44.1503L43.4772 44.2394L37.5078 38.0827V29.442L43.4772 23.4636Z" fill="#AB2227"/>
<path d="M52.3676 35.6198V32.1593C52.3676 31.7729 52.0072 31.4587 51.562 31.4587C51.1169 31.4587 50.7565 31.7729 50.7565 32.1593V35.5604L50.4513 35.5943V35.5476C48.8148 35.1952 47.8439 37.0974 47.8439 37.0974L47.6022 36.9701C48.5901 35.0508 50.1036 35.1867 50.4513 35.2504L50.4385 34.2314V28.3336C50.4385 27.9982 50.1672 27.7265 49.8323 27.7265C49.4974 27.7265 49.226 27.9982 49.226 28.3336V33.2803C49.0946 33.276 48.9589 33.2718 48.819 33.2675V27.6925C48.819 27.3019 48.501 26.9834 48.111 26.9834H48.0728C47.6828 26.9834 47.3648 27.3019 47.3648 27.6925V33.2505C47.2334 33.2505 47.0977 33.2548 46.9705 33.259V28.5077C46.9705 28.1171 46.6526 27.7986 46.2625 27.7986H46.2498C45.8598 27.7986 45.5418 28.1171 45.5418 28.5077V33.3864C45.4358 33.4076 45.3383 33.4246 45.2535 33.4501V29.582C45.2535 29.2678 44.9991 29.013 44.6854 29.013C44.3717 29.013 44.1173 29.2678 44.1173 29.582V36.2907C44.1003 36.5539 43.8883 40.3966 46.2837 41.059H50.1375C50.1375 41.059 52.6304 39.9083 52.3718 35.6071" fill="white"/>
<path d="M103.965 40.0017C103.965 40.4348 103.626 40.7745 103.185 40.7745C102.744 40.7745 102.4 40.4348 102.4 40.0017C102.4 39.5686 102.748 39.2417 103.185 39.2417C103.621 39.2417 103.965 39.5814 103.965 40.0017ZM102.595 40.0017C102.595 40.3414 102.846 40.6089 103.189 40.6089C103.532 40.6089 103.77 40.3414 103.77 40.006C103.77 39.6705 103.524 39.3946 103.185 39.3946C102.846 39.3946 102.595 39.6663 102.595 40.0017ZM103.062 40.4009H102.884V39.6408C102.952 39.6281 103.049 39.6154 103.176 39.6154C103.32 39.6154 103.384 39.6408 103.439 39.6705C103.481 39.7045 103.511 39.764 103.511 39.8361C103.511 39.9211 103.448 39.9848 103.354 40.0102V40.0187C103.431 40.0484 103.469 40.1036 103.494 40.2055C103.515 40.3202 103.532 40.3669 103.549 40.3966H103.359C103.337 40.3669 103.32 40.299 103.299 40.2098C103.286 40.1249 103.24 40.0909 103.142 40.0909H103.058V40.3966L103.062 40.4009ZM103.07 39.9678H103.155C103.253 39.9678 103.333 39.9338 103.333 39.8574C103.333 39.7894 103.282 39.7427 103.172 39.7427C103.125 39.7427 103.091 39.747 103.074 39.7512V39.9678H103.07Z" fill="black"/>
<path d="M148.344 62.4844V89.2599H0V62.4844C0 60.3317 2.09437 58.5908 4.6763 58.5908H143.668C146.25 58.5908 148.344 60.3359 148.344 62.4844Z" fill="#AB2227"/>
<path d="M16.8487 84.9459L127.609 85.4979V98.4822C127.609 101.871 125.803 105.004 122.873 106.703L76.9665 133.244C75.4996 134.094 73.8631 134.514 72.2309 134.514C70.5986 134.514 68.9579 134.089 67.4952 133.244L21.5886 106.703C18.6548 105.008 16.8529 101.875 16.8529 98.4822V84.9417M11.3753 79.4346V98.4865C11.3753 103.82 14.2413 108.787 18.8498 111.454L64.7522 137.996C67.0204 139.308 69.6065 140 72.2266 140C74.8467 140 77.4329 139.308 79.7011 137.996L125.608 111.45C130.22 108.783 133.082 103.815 133.082 98.4822V80.0417L127.634 80.0163L16.8741 79.4643L11.3711 79.4388L11.3753 79.4346Z" fill="#AB2227"/>
<path d="M12.7359 74.4371H9.59857V79.3328H13.1938L12.9479 81.0821H7.69922V66.9004H12.914V68.6625H9.59857V72.692H12.7359V74.4413V74.4371Z" fill="white"/>
<path d="M14.3047 66.8962H17.141C20.1681 66.8962 20.7532 68.5947 20.7532 71.0701V76.5772C20.7532 78.7511 20.397 81.0822 17.0986 81.0822H14.3047V66.9005V66.8962ZM16.204 79.4517H16.9672C18.5189 79.4517 18.8156 78.5049 18.8156 76.8744V70.896C18.8156 69.4523 18.5613 68.5437 16.9629 68.5437H16.1998V79.4517H16.204Z" fill="white"/>
<path d="M24.2685 66.8962V77.7831C24.2685 78.8743 24.6373 79.5536 25.5743 79.5536C26.5113 79.5536 26.8504 78.8531 26.8504 77.7915V66.9005H28.754V77.7448C28.754 79.9655 27.7577 81.2818 25.5361 81.2818C23.3146 81.2818 22.3691 80.1099 22.3691 77.7618V66.9005H24.2685V66.8962Z" fill="white"/>
<path d="M36.515 76.9125V77.4347C36.515 79.1331 36.2224 81.2816 33.4116 81.2816C30.8593 81.2816 30.3633 79.6002 30.3633 77.4687V70.2887C30.3633 68.068 31.3469 66.6965 33.4412 66.6965C35.9808 66.6965 36.4514 68.4289 36.4514 70.3481V70.9511H34.5393V70.1528C34.5393 69.1338 34.3358 68.4289 33.4285 68.4289C32.5212 68.4289 32.2965 69.0828 32.2965 70.1698V77.6131C32.2965 78.7468 32.534 79.5577 33.4624 79.5577C34.3909 79.5577 34.5902 78.7935 34.5902 77.6173V76.9082H36.515V76.9125Z" fill="white"/>
<path d="M39.7924 76.9763L39.22 81.078H37.291L39.5931 66.8962H42.2853L44.6764 81.078H42.6923L42.0648 76.9763H39.8009H39.7924ZM41.8274 75.2269C41.4331 72.518 41.1024 70.1784 40.954 68.6838H40.882C40.8269 69.8217 40.3647 72.9256 40.0425 75.2269H41.8317H41.8274Z" fill="white"/>
<path d="M46.3044 68.6625H44.0234V66.9004H50.4889V68.6625H48.2037V81.0821H46.3044V68.6625Z" fill="white"/>
<path d="M53.3857 66.8962V81.078H51.4863V66.8962H53.3857Z" fill="white"/>
<path d="M61.6492 70.5434V77.388C61.6492 80.0121 60.5511 81.2816 58.2745 81.2816C55.9978 81.2816 55.082 79.9314 55.082 77.4178V70.5349C55.082 67.9491 56.3327 66.6965 58.3974 66.6965C60.4621 66.6965 61.6492 68.017 61.6492 70.5434ZM57.0153 70.3906V77.6216C57.0153 78.976 57.5029 79.562 58.3593 79.562C59.2708 79.562 59.7117 79.0058 59.7117 77.5749V70.3863C59.7117 69.0998 59.2962 68.4374 58.3508 68.4374C57.4647 68.4374 57.0111 69.0488 57.0111 70.3948L57.0153 70.3906Z" fill="white"/>
<path d="M63.3578 81.078V66.8962H65.5793C66.228 69.1594 68.0341 76.3436 68.2206 77.265H68.246C68.1528 75.452 68.1401 73.4563 68.1401 71.1338V66.8962H69.9037V81.078H67.7627C67.1861 78.9762 65.2401 71.1847 65.0451 70.3652H65.0239C65.1214 72.0806 65.1342 74.1442 65.1342 76.7003V81.078H63.3535H63.3578Z" fill="white"/>
<path d="M73.5834 76.9763L73.0111 81.078H71.082L73.3841 66.8962H76.0763L78.4675 81.078H76.4833L75.8558 76.9763H73.5919H73.5834ZM75.6184 75.2269C75.2241 72.518 74.8935 70.1784 74.7451 68.6838H74.673C74.6179 69.8217 74.1558 72.9256 73.8335 75.2269H75.6227H75.6184Z" fill="white"/>
<path d="M79.5742 66.8962H81.4736V79.3753H85.0349L84.8568 81.078H79.5742V66.8962Z" fill="white"/>
<path d="M88.8164 66.8962H90.7158V79.3753H94.277L94.099 81.078H88.8164V66.8962Z" fill="white"/>
<path d="M97.0966 66.8962V81.078H95.1973V66.8962H97.0966Z" fill="white"/>
<path d="M104.943 76.9125V77.4347C104.943 79.1331 104.65 81.2816 101.839 81.2816C99.2871 81.2816 98.791 79.6002 98.791 77.4687V70.2887C98.791 68.068 99.7746 66.6965 101.869 66.6965C104.409 66.6965 104.879 68.4289 104.879 70.3481V70.9511H102.967V70.1528C102.967 69.1338 102.764 68.4289 101.856 68.4289C100.949 68.4289 100.724 69.0828 100.724 70.1698V77.6131C100.724 78.7468 100.962 79.5577 101.89 79.5577C102.819 79.5577 103.018 78.7935 103.018 77.6173V76.9082H104.943V76.9125Z" fill="white"/>
<path d="M111.328 74.4371H108.186V79.3328H111.782L111.536 81.0821H106.287V66.9004H111.502V68.6625H108.186V72.692H111.328V74.4413V74.4371Z" fill="white"/>
<path d="M112.897 81.078V66.8962H115.118C115.767 69.1594 117.573 76.3436 117.76 77.265H117.785C117.692 75.452 117.679 73.4563 117.679 71.1338V66.8962H119.443V81.078H117.302C116.725 78.9762 114.779 71.1847 114.584 70.3652H114.563C114.661 72.0806 114.673 74.1442 114.673 76.7003V81.078H112.893H112.897Z" fill="white"/>
<path d="M122.673 76.9804V77.8339C122.673 79.0058 123.05 79.6469 123.949 79.6469C124.848 79.6469 125.166 78.8699 125.166 77.681C125.166 76.1015 124.822 75.5537 123.313 74.3691C121.791 73.1717 120.998 72.4244 120.998 70.3269C120.998 68.4884 121.549 66.6711 123.966 66.6753C126.365 66.6838 126.836 68.3525 126.836 70.0042V70.7218H124.954V70.0551C124.954 68.9894 124.759 68.3228 123.932 68.3228C123.105 68.3228 122.897 69.0403 122.897 70.0509C122.897 71.1846 123.118 71.6814 124.386 72.624C126.442 74.161 127.078 75.0357 127.078 77.4008C127.078 79.4049 126.429 81.2731 123.894 81.2731C121.359 81.2731 120.773 79.6724 120.773 77.8041V76.9719H122.673V76.9804Z" fill="white"/>
<path d="M133.523 74.4371H130.382V79.3328H133.977L133.731 81.0821H128.482V66.9004H133.697V68.6625H130.382V72.692H133.523V74.4413V74.4371Z" fill="white"/>
<path d="M140.115 74.4371H136.974V79.3328H140.569L140.323 81.0821H135.074V66.9004H140.289V68.6625H136.974V72.692H140.115V74.4413V74.4371Z" fill="white"/>
<path d="M127.689 94.886V100.503C127.689 100.877 127.694 101.255 127.639 101.624C127.528 102.367 127.232 103.077 126.782 103.675C126.557 103.977 126.299 104.248 126.006 104.482C125.718 104.72 125.392 104.911 125.069 105.093L123.128 106.219L119.24 108.465L103.693 117.454L88.1465 126.442L80.3753 130.939L76.4875 133.185L74.5415 134.306C73.8802 134.659 73.134 134.845 72.3878 134.85C71.6416 134.85 70.8912 134.663 70.2341 134.306L68.2881 133.185L64.4004 130.939L56.6291 126.447L41.0824 117.458L25.5357 108.469L21.648 106.223L19.7063 105.098C19.3798 104.911 19.0576 104.724 18.7693 104.486C18.481 104.248 18.2182 103.977 17.9935 103.68C17.5441 103.081 17.2473 102.367 17.137 101.629C17.0777 101.259 17.0819 100.881 17.0862 100.508V94.8902L17.171 96.0154L17.243 97.1406L17.3914 99.3868L17.455 100.512L17.472 100.792L17.4805 100.932C17.4805 100.979 17.4889 101.017 17.4932 101.064C17.5017 101.149 17.5059 101.234 17.5229 101.319C17.5398 101.404 17.5441 101.489 17.5695 101.569C17.7094 102.232 18.0189 102.852 18.4471 103.353C18.6591 103.603 18.905 103.824 19.1678 104.015C19.2017 104.036 19.2314 104.062 19.2653 104.087L19.3671 104.151L19.4688 104.215L19.5748 104.274L19.6808 104.333C19.7147 104.355 19.7614 104.376 19.8038 104.397L20.0539 104.524L22.0508 105.552L26.036 107.624C31.344 110.401 36.6181 113.237 41.8795 116.099L45.8181 118.252L49.7482 120.426C52.3725 121.869 54.9757 123.343 57.5873 124.803C58.8931 125.534 60.1947 126.277 61.4962 127.016L65.4009 129.232L69.2929 131.47L71.1837 132.557C71.5526 132.752 71.9723 132.854 72.392 132.854C72.8075 132.854 73.2315 132.752 73.6003 132.557L75.4912 131.47L79.3874 129.236L83.2921 127.02C84.5937 126.281 85.8952 125.538 87.201 124.812C89.8127 123.347 92.42 121.878 95.0401 120.434L98.9702 118.26L102.909 116.103C108.166 113.242 113.444 110.405 118.748 107.628L122.733 105.556L124.73 104.529L124.98 104.401C125.018 104.38 125.065 104.359 125.103 104.338L125.209 104.278L125.315 104.219L125.417 104.155L125.519 104.091C125.553 104.07 125.582 104.045 125.616 104.019C125.879 103.832 126.121 103.607 126.337 103.357C126.765 102.856 127.075 102.236 127.215 101.573C127.236 101.493 127.244 101.408 127.261 101.323C127.278 101.238 127.282 101.153 127.291 101.068C127.291 101.026 127.299 100.983 127.304 100.937L127.312 100.796L127.329 100.516L127.393 99.391L127.537 97.1449L127.609 96.0197L127.689 94.8945V94.886Z" fill="white"/>
</g>
<defs>
<clipPath id="clip0_2670_4841">
<rect width="148.344" height="140" fill="white"/>
</clipPath>
</defs>
</svg>
