<svg width="149" height="140" viewBox="0 0 149 140" fill="none" xmlns="http://www.w3.org/2000/svg">
<g clip-path="url(#clip0_2670_4924)">
<path d="M120.006 58.8584H23.668V14.7804L71.8349 1.35449L120.006 15.8886V58.8584Z" fill="white"/>
<path d="M17.0003 60.837V99.6754C17.0003 103.064 18.8091 106.197 21.7432 107.896L67.7191 134.438C69.1883 135.287 70.8272 135.707 72.4619 135.707C74.0967 135.707 75.7399 135.283 77.2048 134.438L123.181 107.896C126.119 106.202 127.924 103.068 127.924 99.6754V61.941L16.9961 60.8328L17.0003 60.837Z" fill="#42BEA9"/>
<path d="M72.4669 89.26V135.712C70.828 135.712 69.189 135.287 67.7241 134.442L21.7481 107.9C18.8099 106.206 17.0053 103.072 17.0053 99.6798V95.6036C13.5024 95.6036 10.666 92.7672 10.666 89.2643H72.4669V89.26Z" fill="#009577"/>
<path d="M17.0011 89.2601V95.5994C13.4981 95.5994 0 92.8735 0 89.3705L17.0011 89.2559V89.2601Z" fill="#730E32"/>
<path d="M127.928 95.5993C131.431 95.5993 148.292 92.763 148.292 89.26H127.928V95.5993Z" fill="#730E32"/>
<path d="M36.8047 94.644H39.365C40.779 94.644 41.3182 95.455 41.3182 96.2915C41.3182 97.0176 40.97 97.4889 40.5709 97.6884C40.9658 97.854 41.4838 98.3084 41.4838 99.1576C41.4838 100.262 40.6983 101.085 39.45 101.085H36.8047V94.644ZM39.2207 97.1832C39.8236 97.1832 40.0699 96.8859 40.0699 96.4316C40.0699 95.9773 39.7429 95.7183 39.2546 95.7183H38.0488V97.1832H39.2207ZM38.0488 100.007H39.191C39.8746 100.007 40.1845 99.6926 40.1845 99.1066C40.1845 98.5886 39.8788 98.2574 39.1825 98.2574H38.0488V100.007Z" fill="white"/>
<path d="M46.6682 98.304H43.8658V99.9387H46.9569L46.8083 101.081H42.6387V94.6396H46.7913V95.7818H43.8658V97.1618H46.6682V98.304Z" fill="white"/>
<path d="M50.2812 94.644H52.7057C53.9498 94.644 54.7948 95.4126 54.7948 96.6397C54.7948 98.0366 53.8309 98.682 52.676 98.682H51.5508V101.09H50.2855V94.6483L50.2812 94.644ZM51.5508 97.5696H52.5189C53.1049 97.5696 53.521 97.3233 53.521 96.6652C53.521 96.007 53.0836 95.7523 52.5486 95.7523H51.5551V97.5696H51.5508Z" fill="white"/>
<path d="M57.1516 98.5035V101.081H55.916V94.6396H58.4891C59.7672 94.6396 60.455 95.4124 60.455 96.4102C60.455 97.2764 60.0262 97.7435 59.6058 97.9346C59.8945 98.0535 60.3319 98.3846 60.3319 99.5396V99.858C60.3319 100.291 60.3319 100.784 60.4168 101.085H59.2152C59.1133 100.805 59.092 100.325 59.092 99.6372V99.5438C59.092 98.839 58.9307 98.5078 57.9881 98.5078H57.1559L57.1516 98.5035ZM57.1516 97.3953H58.2131C58.9052 97.3953 59.1727 97.1066 59.1727 96.5673C59.1727 96.0281 58.8628 95.7521 58.2428 95.7521H57.1516V97.3996V97.3953Z" fill="white"/>
<path d="M65.7756 98.304H62.9732V99.9387H66.0643L65.9157 101.081H61.7461V94.6396H65.8987V95.7818H62.9774V97.1618H65.7798V98.304H65.7756Z" fill="white"/>
<path d="M67.1387 94.644H69.5632C70.8072 94.644 71.6522 95.4126 71.6522 96.6397C71.6522 98.0366 70.6884 98.682 69.5334 98.682H68.4082V101.09H67.1429V94.6483L67.1387 94.644ZM68.4082 97.5696H69.3763C69.9623 97.5696 70.3784 97.3233 70.3784 96.6652C70.3784 96.007 69.9411 95.7523 69.4061 95.7523H68.4125V97.5696H68.4082Z" fill="white"/>
<path d="M73.3667 99.5948L72.9082 101.081H71.6641L73.6512 94.6396H75.2435L77.3155 101.081H75.9865L75.5067 99.5948H73.3667ZM75.2307 98.4526C74.8146 97.0939 74.5514 96.2234 74.407 95.646H74.3985C74.2541 96.2829 73.9612 97.2934 73.63 98.4526H75.2307Z" fill="white"/>
<path d="M79.4778 98.5035V101.081H78.2422V94.6396H80.8153C82.0933 94.6396 82.7812 95.4124 82.7812 96.4102C82.7812 97.2764 82.3523 97.7435 81.932 97.9346C82.2207 98.0535 82.6581 98.3846 82.6581 99.5396V99.858C82.6581 100.291 82.6581 100.784 82.743 101.085H81.5413C81.4394 100.805 81.4182 100.325 81.4182 99.6372V99.5438C81.4182 98.839 81.2569 98.5078 80.3142 98.5078H79.482L79.4778 98.5035ZM79.4778 97.3953H80.5393C81.2314 97.3953 81.4989 97.1066 81.4989 96.5673C81.4989 96.0281 81.1889 95.7521 80.569 95.7521H79.4778V97.3996V97.3953Z" fill="white"/>
<path d="M88.1017 98.304H85.2994V99.9387H88.3905L88.2419 101.081H84.0723V94.6396H88.2249V95.7818H85.2994V97.1618H88.1017V98.304Z" fill="white"/>
<path d="M89.4629 94.644H91.7855C93.4924 94.644 94.6048 95.8796 94.6048 97.7861C94.6048 99.6926 93.5221 101.085 91.7303 101.085H89.4629V94.644ZM90.7282 99.9601H91.6793C92.8003 99.9601 93.2971 99.0429 93.2971 97.7861C93.2971 96.7331 92.8342 95.7692 91.6836 95.7692H90.7282V99.9601Z" fill="white"/>
<path d="M99.281 95.7818H97.502V94.6396H102.321V95.7818H100.551V101.081H99.2853V95.7818H99.281Z" fill="white"/>
<path d="M108.478 97.8412C108.478 99.633 107.501 101.179 105.599 101.179C103.697 101.179 102.801 99.7095 102.801 97.8624C102.801 96.0154 103.862 94.5505 105.684 94.5505C107.395 94.5505 108.482 95.8711 108.482 97.8412H108.478ZM104.104 97.837C104.104 99.0938 104.605 100.045 105.646 100.045C106.771 100.045 107.17 99.0089 107.17 97.8582C107.17 96.6396 106.716 95.68 105.624 95.68C104.533 95.68 104.104 96.5801 104.104 97.8327V97.837Z" fill="white"/>
<path d="M48.434 109.386C48.5656 110.032 48.9902 110.316 49.6653 110.316C50.3404 110.316 50.6292 110.023 50.6292 109.552C50.6292 109.029 50.3447 108.8 49.3469 108.545C47.7546 108.134 47.3597 107.497 47.3597 106.626C47.3597 105.505 48.124 104.741 49.5082 104.741C51.0623 104.741 51.6822 105.662 51.7671 106.601H50.4933C50.4338 106.206 50.2343 105.773 49.4785 105.773C48.9647 105.773 48.6548 106.006 48.6548 106.465C48.6548 106.923 48.9053 107.093 49.8479 107.335C51.5505 107.777 51.9242 108.473 51.9242 109.382C51.9242 110.558 51.1132 111.365 49.5677 111.365C48.0221 111.365 47.3003 110.558 47.1602 109.386H48.434Z" fill="white"/>
<path d="M54.2905 109.785L53.832 111.271H52.5879L54.575 104.83H56.1673L58.2436 111.271H56.9146L56.4348 109.785H54.2948H54.2905ZM56.1588 108.643C55.7427 107.284 55.4794 106.414 55.3351 105.836H55.3266C55.1822 106.473 54.8892 107.484 54.5581 108.643H56.1588Z" fill="white"/>
<path d="M60.0522 111.276L57.9844 104.834H59.3431L60.2135 107.811C60.4768 108.711 60.6806 109.475 60.8165 110.134H60.8335C60.9524 109.531 61.1816 108.745 61.4619 107.832L62.3748 104.834H63.6656L61.5425 111.276H60.0479H60.0522Z" fill="white"/>
<path d="M68.5725 108.494H65.7701V110.129H68.8612L68.7126 111.271H64.543V104.83H68.6956V105.972H65.7743V107.352H68.5767V108.494H68.5725Z" fill="white"/>
<path d="M73.2866 109.785L72.8281 111.271H71.584L73.5711 104.83H75.1634L77.2397 111.271H75.9107L75.4309 109.785H73.2909H73.2866ZM75.1507 108.643C74.7345 107.284 74.4713 106.414 74.3269 105.836H74.3184C74.1741 106.473 73.8811 107.484 73.5499 108.643H75.1507Z" fill="white"/>
<path d="M80.4238 104.834H81.6891V110.134H84.6062L84.4618 111.276H80.4238V104.834Z" fill="white"/>
<path d="M86.7927 104.834V111.276H85.5273V104.834H86.7927Z" fill="white"/>
<path d="M88.3633 104.834H92.4522V105.977H89.6031V107.556H92.2739V108.698H89.6031V111.28H88.3675V104.839L88.3633 104.834Z" fill="white"/>
<path d="M97.59 108.494H94.7876V110.129H97.8788L97.7301 111.271H93.5605V104.83H97.7132V105.972H94.7876V107.352H97.59V108.494Z" fill="white"/>
<path d="M71.5669 5.6642L117.967 16.2453V58.4466L25.0687 58.6334V16.3727L71.5669 5.6642ZM71.5627 0L70.3313 0.284484L23.8288 10.993L19.5488 11.978V64.166L25.0814 64.1532L117.98 63.9664L123.487 63.9537V11.8422L119.195 10.8613L72.794 0.280238L71.5627 0Z" fill="#AB2227"/>
<path d="M67.1556 30.5843C67.1429 29.9346 66.782 29.7181 66.247 29.7181C65.5846 29.7181 65.2959 30.0068 65.2959 30.3252C65.2959 30.6989 65.5421 30.8602 65.9752 30.9876C66.7692 31.2169 68.2256 31.5056 69.2744 31.9515C70.5864 32.4992 71.1639 33.4376 71.1639 34.6902C71.1639 37.242 69.0876 38.3078 66.1451 38.3078C63.6357 38.3078 61.3301 37.5308 61.3301 34.8175H65.2789C65.2789 35.1063 65.3383 35.395 65.4954 35.6116C65.6525 35.8111 65.9158 35.9427 66.3022 35.9427C66.9094 35.9427 67.2957 35.5521 67.2957 35.0935C67.2957 34.7029 66.9943 34.5033 66.6036 34.3887L63.6781 33.5225C62.0774 33.0469 61.5169 32.0789 61.5169 30.7414C61.5169 28.5801 63.262 27.353 66.3022 27.353C68.8965 27.353 70.8412 28.1598 70.8412 30.5843H67.1514H67.1556Z" fill="#AB2227"/>
<path d="M73.9321 30.427H71.3633V27.6289H80.6196V30.427H78.055V38.0359H73.9321V30.427Z" fill="#AB2227"/>
<path d="M86.2192 27.353C89.8071 27.353 91.5947 29.5864 91.5947 32.8304C91.5947 36.0744 89.8071 38.3078 86.2192 38.3078C82.6313 38.3078 80.8438 36.0744 80.8438 32.8304C80.8438 29.5864 82.6313 27.353 86.2192 27.353ZM86.2192 35.5988C86.8519 35.5988 87.3274 35.2379 87.3274 32.8304C87.3274 30.4229 86.8816 30.062 86.2192 30.062C85.5568 30.062 85.111 30.4781 85.111 32.8304C85.111 35.1827 85.5866 35.5988 86.2192 35.5988Z" fill="#AB2227"/>
<path d="M92.6016 27.6289H98.6564C101.166 27.6289 102.346 29.0853 102.346 31.047C102.346 33.1233 100.992 34.5372 98.0789 34.5372H96.7245V38.0402H92.6016V27.6332V27.6289ZM96.9283 32.1679C97.994 32.1679 98.3974 31.7773 98.3974 31.0427C98.3974 30.3081 98.0492 29.9897 97.1576 29.9897H96.7245V32.1679H96.9283Z" fill="#AB2227"/>
<path d="M63.1649 44.337V39.8786H61.4707V39.2842H65.5469V39.8786H63.857V44.337H63.1649Z" fill="#221F1F"/>
<path d="M67.4389 39.2842V41.4539H69.8379V39.2842H70.5385V44.337H69.8379V42.0526H67.4389V44.337H66.7383V39.2842H67.4389Z" fill="#221F1F"/>
<path d="M72.1816 39.2842H75.3534V39.8786H72.8822V41.4539H75.2303V42.0399H72.8822V43.7213H75.4086V44.337H72.1816V39.2842Z" fill="#221F1F"/>
<path d="M79.5156 39.2842H81.3202C81.9359 39.2842 82.2798 39.3479 82.594 39.6536C82.8105 39.8616 82.9507 40.1589 82.9507 40.558C82.9507 41.3902 82.3435 41.6068 82.0972 41.7002C82.3902 41.7851 83.1035 41.9931 83.1035 42.9612C83.1035 43.6449 82.6619 43.9973 82.4963 44.1077C82.1482 44.337 81.7533 44.337 81.3542 44.337H79.5156V39.2842ZM80.195 41.4157H81.1758C81.4136 41.4157 82.2246 41.4157 82.2246 40.6174C82.2246 39.8192 81.5877 39.8531 81.2013 39.8531H80.195V41.4157ZM80.195 43.768H81.3924C81.9444 43.768 82.3859 43.475 82.3859 42.8933C82.3859 42.388 82.0378 42.0186 81.4221 42.0186H80.1992V43.768H80.195Z" fill="#221F1F"/>
<path d="M84.5938 39.2842H85.2859V43.7128H87.6382V44.337H84.5938V39.2842Z" fill="#221F1F"/>
<path d="M88.8574 39.2842H92.025V39.8786H89.558V41.4539H91.9061V42.0399H89.558V43.7213H92.0844V44.337H88.8574V39.2842Z" fill="#221F1F"/>
<path d="M93.4551 39.2842H96.6269V39.8786H94.1557V41.4539H96.508V42.0399H94.1557V43.7213H96.6821V44.337H93.4551V39.2842Z" fill="#221F1F"/>
<path d="M98.0957 39.2842H99.5563C100.236 39.2842 101.034 39.2842 101.594 39.9423C102.04 40.4646 102.219 41.1609 102.219 41.853C102.219 42.9443 101.764 43.6151 101.378 43.9251C100.881 44.337 100.257 44.337 99.5181 44.337H98.0957V39.2842ZM98.7963 43.7595H99.4842C99.9682 43.7595 100.469 43.7298 100.805 43.4793C101.45 42.9952 101.471 42.1715 101.471 41.8785C101.471 41.6874 101.459 40.8297 100.983 40.3032C100.66 39.9466 100.257 39.8616 99.6413 39.8616H98.8005V43.7595H98.7963Z" fill="#221F1F"/>
<path d="M43.5429 23.4636H52.158L58.2553 29.442L58.2851 38.0233L52.2769 44.1503L43.5429 44.2394L37.5645 38.0827V29.442L43.5429 23.4636Z" fill="#AB2227"/>
<path d="M52.4465 35.6198V32.1593C52.4465 31.7729 52.0856 31.4587 51.6397 31.4587C51.1939 31.4587 50.833 31.7729 50.833 32.1593V35.5604L50.5273 35.5943V35.5476C48.8883 35.1952 47.916 37.0974 47.916 37.0974L47.6739 36.9701C48.6633 35.0508 50.1791 35.1867 50.5273 35.2504L50.5145 34.2314V28.3336C50.5145 27.9982 50.2428 27.7265 49.9073 27.7265C49.5719 27.7265 49.3002 27.9982 49.3002 28.3336V33.2803C49.1685 33.276 49.0327 33.2718 48.8925 33.2675V27.6925C48.8925 27.3019 48.5741 26.9834 48.1835 26.9834H48.1452C47.7546 26.9834 47.4362 27.3019 47.4362 27.6925V33.2505C47.3045 33.2505 47.1687 33.2548 47.0413 33.259V28.5077C47.0413 28.1171 46.7228 27.7986 46.3322 27.7986H46.3194C45.9288 27.7986 45.6104 28.1171 45.6104 28.5077V33.3864C45.5042 33.4076 45.4066 33.4246 45.3216 33.4501V29.582C45.3216 29.2678 45.0669 29.013 44.7527 29.013C44.4385 29.013 44.1837 29.2678 44.1837 29.582V36.2907C44.1667 36.5539 43.9544 40.3966 46.3534 41.059H50.2131C50.2131 41.059 52.7097 39.9083 52.4507 35.6071" fill="white"/>
<path d="M104.121 40.0017C104.121 40.4348 103.782 40.7745 103.34 40.7745C102.899 40.7745 102.555 40.4348 102.555 40.0017C102.555 39.5686 102.903 39.2417 103.34 39.2417C103.778 39.2417 104.121 39.5814 104.121 40.0017ZM102.75 40.0017C102.75 40.3414 103.001 40.6089 103.344 40.6089C103.688 40.6089 103.926 40.3414 103.926 40.006C103.926 39.6705 103.68 39.3946 103.34 39.3946C103.001 39.3946 102.75 39.6663 102.75 40.0017ZM103.217 40.4009H103.039V39.6408C103.107 39.6281 103.204 39.6154 103.332 39.6154C103.476 39.6154 103.54 39.6408 103.595 39.6705C103.637 39.7045 103.667 39.764 103.667 39.8361C103.667 39.9211 103.603 39.9848 103.51 40.0102V40.0187C103.586 40.0484 103.625 40.1036 103.65 40.2055C103.671 40.3202 103.688 40.3669 103.705 40.3966H103.514C103.493 40.3669 103.476 40.299 103.455 40.2098C103.442 40.1249 103.395 40.0909 103.298 40.0909H103.213V40.3966L103.217 40.4009ZM103.226 39.9678H103.31C103.408 39.9678 103.489 39.9338 103.489 39.8574C103.489 39.7894 103.438 39.7427 103.327 39.7427C103.281 39.7427 103.247 39.747 103.23 39.7512V39.9678H103.226Z" fill="black"/>
<path d="M148.568 62.4844V89.2599H0V62.4844C0 60.3317 2.09754 58.5908 4.68337 58.5908H143.885C146.471 58.5908 148.568 60.3359 148.568 62.4844Z" fill="#AB2227"/>
<path d="M16.8745 84.9459L127.802 85.4979V98.4822C127.802 101.871 125.993 105.004 123.059 106.703L77.0832 133.244C75.6141 134.094 73.9751 134.514 72.3404 134.514C70.7057 134.514 69.0625 134.089 67.5976 133.244L21.6216 106.703C18.6833 105.008 16.8788 101.875 16.8788 98.4822V84.9417M11.3929 79.4346V98.4865C11.3929 103.819 14.2632 108.787 18.8787 111.454L64.8504 137.996C67.122 139.308 69.7121 140 72.3361 140C74.9602 140 77.5503 139.308 79.8219 137.996L125.798 111.454C130.418 108.787 133.284 103.819 133.284 98.4865V80.046L127.827 80.0205L16.9 79.4685L11.3887 79.4431L11.3929 79.4346Z" fill="#AB2227"/>
<path d="M25.4726 65.5205V82.8231H23.1543V65.5205H25.4726Z" fill="white"/>
<path d="M29.2129 82.8231V65.5205H31.9261C32.7201 68.2804 34.928 77.0485 35.1531 78.1737H35.1871C35.0724 75.9615 35.0554 73.5285 35.0554 70.6922V65.5205H37.2124V82.8231H34.5969C33.892 80.2585 31.5142 70.7559 31.2765 69.7538H31.251C31.3741 71.8428 31.3869 74.365 31.3869 77.4816V82.8231H29.2129Z" fill="white"/>
<path d="M42.4511 77.8212V78.8615C42.4511 80.2924 42.9097 81.0737 44.0094 81.0737C45.1092 81.0737 45.4955 80.1268 45.4955 78.6746C45.4955 76.7469 45.0752 76.0803 43.2324 74.6367C41.3769 73.176 40.4046 72.2631 40.4046 69.707C40.4046 67.4651 41.0797 65.2445 44.0307 65.253C46.9647 65.2614 47.5379 67.2995 47.5379 69.3122V70.1868H45.2365V69.3758C45.2365 68.0723 45.003 67.2613 43.9882 67.2613C42.9734 67.2613 42.7271 68.136 42.7271 69.3716C42.7271 70.7558 42.9946 71.3587 44.5444 72.5094C47.0538 74.3819 47.8351 75.4519 47.8351 78.3392C47.8351 80.7849 47.0453 83.065 43.9457 83.065C40.8461 83.065 40.1328 81.1119 40.1328 78.836V77.8212H42.4511Z" fill="white"/>
<path d="M52.5354 67.6688H49.75V65.5161H57.6476V67.6688H54.858V82.8187H52.5396V67.6688H52.5354Z" fill="white"/>
<path d="M62.4843 74.9424V82.8231H60.166V65.5205H63.5798C66.1996 65.5205 67.6348 66.6032 67.6348 69.6094V70.3228C67.6348 72.8534 66.6539 73.6474 65.8727 73.9446C66.9172 74.3905 67.4692 75.159 67.4692 77.4943C67.4692 78.9592 67.4437 81.7531 67.6305 82.8188H65.3844C65.1593 81.7573 65.2018 78.8912 65.2018 77.6514C65.2018 75.4859 64.9131 74.9382 63.2911 74.9382H62.4801L62.4843 74.9424ZM62.4843 73.0063H63.3166C64.8239 73.0063 65.308 72.2972 65.308 70.4289V69.7623C65.308 68.3229 64.9683 67.4525 63.359 67.4525H62.4843V73.0063Z" fill="white"/>
<path d="M73.0823 65.5205V78.8021C73.0823 80.1353 73.5324 80.9633 74.6789 80.9633C75.8253 80.9633 76.2371 80.1099 76.2371 78.8106V65.5205H78.564V78.7511C78.564 81.4601 77.3454 83.0693 74.6321 83.0693C71.9189 83.0693 70.7598 81.6427 70.7598 78.7766V65.5248H73.0781L73.0823 65.5205Z" fill="white"/>
<path d="M89.3455 77.7363V78.3732C89.3455 80.4452 88.9889 83.065 85.5538 83.065C82.4373 83.065 81.8301 81.0099 81.8301 78.4114V69.6561C81.8301 66.9429 83.0317 65.2742 85.5921 65.2742C88.6917 65.2742 89.2734 67.3887 89.2734 69.7283V70.4628H86.938V69.4905C86.938 68.2464 86.6918 67.3887 85.5793 67.3887C84.4669 67.3887 84.1951 68.1869 84.1951 69.5117V78.5897C84.1951 79.9739 84.4838 80.9632 85.6175 80.9632C86.7512 80.9632 86.9932 80.0291 86.9932 78.5982V77.732H89.3455V77.7363Z" fill="white"/>
<path d="M94.2366 67.6688H91.4512V65.5161H99.3488V67.6688H96.5591V82.8187H94.2408V67.6688H94.2366Z" fill="white"/>
<path d="M109.484 69.9661V78.3138C109.484 81.5153 108.142 83.0609 105.361 83.0609C102.58 83.0609 101.459 81.4092 101.459 78.3478V69.9534C101.459 66.7986 102.988 65.27 105.51 65.27C108.032 65.27 109.484 66.8835 109.484 69.9619V69.9661ZM103.824 69.7793V78.5983C103.824 80.25 104.423 80.9676 105.467 80.9676C106.584 80.9676 107.123 80.2882 107.123 78.5431V69.7708C107.123 68.204 106.614 67.393 105.459 67.393C104.376 67.393 103.824 68.1403 103.824 69.7835V69.7793Z" fill="white"/>
<path d="M115.191 74.9424V82.8231H112.873V65.5205H116.287C118.907 65.5205 120.342 66.6032 120.342 69.6094V70.3228C120.342 72.8534 119.361 73.6474 118.58 73.9446C119.624 74.3905 120.176 75.159 120.176 77.4943C120.176 78.9592 120.151 81.7531 120.338 82.8188H118.091C117.866 81.7573 117.909 78.8912 117.909 77.6514C117.909 75.4859 117.62 74.9382 115.998 74.9382H115.187L115.191 74.9424ZM115.191 73.0063H116.024C117.535 73.0063 118.015 72.2972 118.015 70.4289V69.7623C118.015 68.3229 117.675 67.4525 116.07 67.4525H115.196V73.0063H115.191Z" fill="white"/>
<path d="M127.802 95.3445V100.962C127.802 101.336 127.806 101.714 127.751 102.083C127.64 102.826 127.343 103.535 126.893 104.134C126.668 104.435 126.409 104.707 126.116 104.941C125.827 105.178 125.5 105.369 125.178 105.552L123.233 106.677L119.34 108.923L103.769 117.912L88.1991 126.901L80.4162 131.397L76.5226 133.644L74.5736 134.765C73.9113 135.117 73.164 135.304 72.4167 135.308C71.6694 135.308 70.9178 135.121 70.2597 134.765L68.3108 133.644L64.4172 131.397L56.6342 126.905L41.064 117.916L25.4938 108.928L21.6002 106.681L19.6555 105.556C19.3286 105.369 19.0059 105.183 18.7172 104.945C18.4284 104.707 18.1652 104.435 17.9401 104.138C17.4901 103.539 17.1928 102.826 17.0824 102.087C17.023 101.718 17.0272 101.34 17.0315 100.966V95.3487L17.1164 96.4739L17.1886 97.5991L17.3372 99.8453L17.4009 100.97L17.4179 101.251L17.4264 101.391C17.4264 101.438 17.4349 101.476 17.4391 101.522C17.4476 101.607 17.4518 101.692 17.4688 101.777C17.4858 101.862 17.4901 101.947 17.5155 102.028C17.6557 102.69 17.9656 103.31 18.3945 103.811C18.6068 104.062 18.853 104.282 19.1163 104.473C19.1503 104.495 19.18 104.52 19.2139 104.546L19.3159 104.609L19.4178 104.673L19.5239 104.732L19.6301 104.792C19.664 104.813 19.7107 104.834 19.7532 104.856L20.0037 104.983L22.0036 106.011L25.9949 108.083C31.3109 110.859 36.5929 113.696 41.8623 116.558L45.8068 118.71L49.7429 120.884C52.3712 122.328 54.9782 123.801 57.5938 125.262C58.9016 125.992 60.2051 126.735 61.5086 127.474L65.4192 129.691L69.3171 131.928L71.2108 133.015C71.5802 133.211 72.0005 133.312 72.4209 133.312C72.837 133.312 73.2616 133.211 73.631 133.015L75.5247 131.928L79.4268 129.695L83.3374 127.478C84.641 126.74 85.9445 125.997 87.2523 125.27C89.8678 123.806 92.4791 122.336 95.1032 120.893L99.0393 118.719L102.984 116.562C108.249 113.7 113.535 110.864 118.847 108.087L122.838 106.015L124.838 104.987L125.089 104.86C125.127 104.839 125.174 104.817 125.212 104.796L125.318 104.737L125.424 104.677L125.526 104.614L125.628 104.55C125.662 104.529 125.692 104.503 125.726 104.478C125.989 104.291 126.231 104.066 126.447 103.815C126.876 103.314 127.186 102.694 127.326 102.032C127.348 101.951 127.356 101.866 127.373 101.781C127.39 101.697 127.394 101.612 127.403 101.527C127.403 101.484 127.411 101.442 127.415 101.395L127.424 101.255L127.441 100.975L127.505 99.8495L127.649 97.6034L127.721 96.4782L127.802 95.353V95.3445Z" fill="white"/>
</g>
<defs>
<clipPath id="clip0_2670_4924">
<rect width="148.568" height="140" fill="white"/>
</clipPath>
</defs>
</svg>
