<svg width="348" height="112" viewBox="0 0 348 112" fill="none" xmlns="http://www.w3.org/2000/svg">
<rect width="348" height="112" fill="white"/>
<g clip-path="url(#clip0_3145_4738)">
<path d="M57.1992 41.5927H63.4224C63.7006 44.1095 65.3446 45.1603 68.3171 45.1603C70.3431 45.1603 72.3358 44.4252 72.3358 42.5355C72.3358 40.542 70.3098 40.1225 66.8807 39.2836C62.5464 38.2702 57.9673 36.9412 57.9673 31.6958C57.9673 26.4504 62.3015 24 67.8978 24C73.4941 24 77.5128 26.4504 77.7577 31.6958H71.7089C71.464 29.7729 69.9943 28.6889 67.6902 28.6889C65.5231 28.6889 64.0908 29.6317 64.0908 31.0313C64.0908 32.7798 66.013 33.1992 69.7535 34.0382C74.4033 35.1221 78.6005 36.555 78.6005 41.9084C78.6005 47.2618 74.1251 50.0568 68.3586 50.0568C61.7078 50.0568 57.3404 47.1206 57.1992 41.5927Z" fill="#EF4425"/>
<path d="M82.162 44.7408V35.1221H79.7832V31.5545H82.162V25.8896H87.721V31.5545H90.9717V35.1221H87.721V43.5156C87.721 44.9152 88.489 45.2641 89.7137 45.2641C90.2036 45.2641 90.7641 45.2309 90.9717 45.2309V49.3923C90.4818 49.5335 89.3982 49.6706 87.858 49.6706C84.5367 49.6706 82.1579 48.5866 82.1579 44.7408H82.162Z" fill="#EF4425"/>
<path d="M92.4043 40.5419C92.4043 35.1553 96.2486 31.0645 101.982 31.0645C107.715 31.0645 111.526 35.1553 111.526 40.5419C111.526 45.9286 107.753 50.0194 101.982 50.0194C96.2113 50.0194 92.4043 45.9286 92.4043 40.5419ZM105.76 40.5419C105.76 37.29 104.431 35.0847 101.949 35.0847C99.4661 35.0847 98.175 37.2859 98.175 40.5419C98.175 43.798 99.4703 45.9618 101.949 45.9618C104.427 45.9618 105.76 43.7939 105.76 40.5419Z" fill="#EF4425"/>
<path d="M113.801 31.5545H119.256V33.7225H119.36C120.585 32.1152 122.332 31.0271 124.778 31.0271C129.531 31.0271 132.433 35.118 132.433 40.5046C132.433 46.3107 129.32 50.0194 124.637 50.0194C122.328 50.0194 120.684 49.1099 119.568 47.6065H119.497V55.3729H113.797V31.5545H113.801ZM126.667 40.7164C126.667 37.6389 125.513 35.6122 123.067 35.6122C120.622 35.6122 119.327 37.8175 119.327 40.7164C119.327 43.6153 120.726 45.613 123.171 45.613C125.338 45.613 126.667 43.7606 126.667 40.7164Z" fill="#EF4425"/>
<path d="M141.879 44.7408V35.1221H139.5V31.5545H141.879V25.8896H147.438V31.5545H150.688V35.1221H147.438V43.5156C147.438 44.9152 148.206 45.2641 149.431 45.2641C149.92 45.2641 150.481 45.2309 150.688 45.2309V49.3923C150.199 49.5335 149.115 49.6706 147.575 49.6706C144.254 49.6706 141.875 48.5866 141.875 44.7408H141.879Z" fill="#EF4425"/>
<path d="M153.1 24.4526H158.8V33.7557H158.904C160.199 32.0404 161.735 31.0271 164.218 31.0271C168.133 31.0271 170.441 33.8263 170.441 37.8133V49.4587H164.741V38.9679C164.741 37.0782 163.798 35.7866 161.943 35.7866C160.087 35.7866 158.796 37.3606 158.796 39.5659V49.4629H153.096V24.4526H153.1Z" fill="#EF4425"/>
<path d="M172.576 40.4755C172.576 35.1263 176.317 31.0312 181.772 31.0312C184.325 31.0312 186.351 31.8702 187.891 33.2698C190.025 35.2301 191.071 38.3408 191.038 41.9789H178.172C178.521 44.3919 179.85 45.8954 182.191 45.8954C183.694 45.8954 184.674 45.2309 185.164 44.1137H190.723C190.337 45.7209 189.29 47.2617 187.717 48.3457C186.214 49.3965 184.396 49.9904 182.125 49.9904C176.217 49.9904 172.58 45.8995 172.58 40.4755H172.576ZM185.263 38.5858C185.056 36.4511 183.723 35.0889 181.872 35.0889C179.704 35.0889 178.583 36.4511 178.202 38.5858H185.263Z" fill="#EF4425"/>
<path d="M199.424 24.4526H211.484C214.071 24.4526 215.993 25.0839 217.321 26.1679C218.754 27.3557 219.489 28.9671 219.489 30.9606C219.489 33.4442 218.193 35.0182 215.993 35.8572V35.961C218.721 36.7999 220.468 39.1091 220.468 42.0827C220.468 44.5996 219.559 46.4186 217.915 47.677C216.445 48.8316 214.386 49.4587 211.763 49.4587H199.42V24.4526H199.424ZM210.579 34.3537C212.36 34.3537 213.585 33.4774 213.585 31.8369C213.585 30.1964 212.431 29.3534 210.613 29.3534H205.543V34.3537H210.579ZM211.065 44.4957C213.091 44.4957 214.353 43.3412 214.353 41.5595C214.353 39.5659 212.883 38.5526 210.999 38.5526H205.543V44.4999H211.069L211.065 44.4957Z" fill="#EF4425"/>
<path d="M222.918 24.4526H228.689V49.4587H222.918V24.4526Z" fill="#EF4425"/>
<path d="M230.992 40.4755C230.992 35.1263 234.733 31.0312 240.188 31.0312C242.741 31.0312 244.767 31.8702 246.307 33.2698C248.441 35.2301 249.487 38.3408 249.454 41.9789H236.588C236.937 44.3919 238.266 45.8954 240.607 45.8954C242.11 45.8954 243.09 45.2309 243.58 44.1137H249.139C248.753 45.7209 247.706 47.2617 246.133 48.3457C244.63 49.3965 242.812 49.9904 240.541 49.9904C234.633 49.9904 230.996 45.8995 230.996 40.4755H230.992ZM243.684 38.5858C243.476 36.4511 242.143 35.0889 240.292 35.0889C238.125 35.0889 237.004 36.4511 236.622 38.5858H243.684Z" fill="#EF4425"/>
<path d="M250.924 40.4755C250.924 35.1263 254.664 31.0312 260.12 31.0312C262.673 31.0312 264.699 31.8702 266.239 33.2698C268.373 35.2301 269.419 38.3408 269.386 41.9789H256.52C256.869 44.3919 258.197 45.8954 260.539 45.8954C262.042 45.8954 263.021 45.2309 263.511 44.1137H269.07C268.684 45.7209 267.638 47.2617 266.065 48.3457C264.562 49.3965 262.743 49.9904 260.472 49.9904C254.565 49.9904 250.928 45.8995 250.928 40.4755H250.924ZM263.615 38.5858C263.403 36.4511 262.075 35.0889 260.223 35.0889C258.056 35.0889 256.935 36.4511 256.553 38.5858H263.615Z" fill="#EF4425"/>
<path d="M270.852 40.5087C270.852 34.9144 274.069 31.0312 278.682 31.0312C281.197 31.0312 282.634 32.082 283.68 33.5854H283.784V24.4526H289.484V49.4587H284.029V47.0458H283.958C282.875 48.8981 281.023 50.0194 278.677 50.0194C274.098 50.0194 270.848 46.4851 270.848 40.5046L270.852 40.5087ZM283.925 40.5087C283.925 37.5018 282.7 35.3339 280.218 35.3339C277.947 35.3339 276.618 37.4312 276.618 40.4423C276.618 43.4533 277.947 45.5132 280.151 45.5132C282.53 45.5132 283.925 43.4491 283.925 40.5129V40.5087Z" fill="#EF4425"/>
<path d="M62.3095 65.0249H63.9162L68.1176 76.4045H66.5607L65.3526 72.9366H60.8191L59.5944 76.4045H58.1289L62.3137 65.0249H62.3095ZM61.2301 71.7696H64.9541L63.6505 67.9487C63.4263 67.3133 63.1398 66.3414 63.1398 66.3414H63.1066C63.1066 66.3414 62.8036 67.2967 62.5835 67.9487L61.2301 71.7696Z" fill="#231F20"/>
<path d="M69.4707 68.173H70.7577V69.3483H70.7909C71.3015 68.5509 72.1734 67.9819 73.2071 67.9819C74.2408 67.9819 75.0047 68.4928 75.3535 69.448H75.3867C75.9098 68.5094 76.8978 67.9819 77.8984 67.9819C79.3639 67.9819 80.3976 68.9205 80.3976 70.6233V76.4004H79.1106V70.6898C79.1106 69.6723 78.4256 69.0659 77.5995 69.0659C76.5325 69.0659 75.5776 69.9879 75.5776 71.2795V76.4045H74.2907V70.6939C74.2907 69.6764 73.7177 69.0701 72.875 69.0701C71.8745 69.0701 70.7577 69.9921 70.7577 71.2837V76.4087H69.4707V68.1813V68.173Z" fill="#231F20"/>
<path d="M81.9551 72.2971C81.9551 69.909 83.5119 67.9695 85.8534 67.9695C88.3194 67.9695 89.6396 69.8799 89.6396 72.6002H83.2753C83.3708 74.2698 84.2758 75.5448 85.9323 75.5448C87.1238 75.5448 87.9209 74.9717 88.2073 73.8586H89.4653C89.0833 75.6237 87.7963 76.6288 85.9323 76.6288C83.4206 76.6288 81.9551 74.6893 81.9551 72.3012V72.2971ZM83.3085 71.6284H88.2571C88.1783 69.9879 87.3355 68.987 85.8534 68.987C84.3713 68.987 83.4995 70.1333 83.3085 71.6284Z" fill="#231F20"/>
<path d="M92.504 69.5435H92.5372C93.0313 68.7461 93.8906 68.0774 94.9867 68.0774C95.2274 68.0774 95.352 68.1106 95.5098 68.1729V69.4147H95.4599C95.269 69.3524 95.1403 69.3358 94.887 69.3358C93.6125 69.3358 92.4999 70.291 92.4999 71.836V76.4045H91.2129V68.1771H92.4999V69.5435H92.504Z" fill="#231F20"/>
<path d="M96.9883 65.0249H98.2753V66.6156H96.9883V65.0249ZM96.9883 68.173H98.2753V76.4004H96.9883V68.173Z" fill="#231F20"/>
<path d="M99.8811 72.2971C99.8811 69.909 101.409 67.9695 103.858 67.9695C105.797 67.9695 107.088 69.0825 107.375 70.8352H106.071C105.88 69.7221 105.1 69.0368 103.858 69.0368C102.11 69.0368 101.201 70.4863 101.201 72.3012C101.201 74.1161 102.106 75.549 103.858 75.549C105.195 75.549 105.988 74.7848 106.1 73.5139H107.371C107.196 75.4867 105.909 76.6329 103.854 76.6329C101.405 76.6329 99.877 74.6934 99.877 72.3054L99.8811 72.2971Z" fill="#231F20"/>
<path d="M114.12 75.2541H114.104C113.61 75.8895 112.767 76.5582 111.368 76.5582C109.811 76.5582 108.582 75.8272 108.582 74.2656C108.582 72.3261 110.11 71.9274 112.161 71.6076C113.323 71.4332 114.133 71.321 114.133 70.4323C114.133 69.5435 113.464 68.9828 112.289 68.9828C110.953 68.9828 110.284 69.556 110.239 70.7977H108.997C109.043 69.2071 110.093 68.011 112.273 68.011C114.021 68.011 115.312 68.663 115.312 70.6192V74.5356C115.312 75.2042 115.469 75.5697 116.188 75.4119H116.233V76.3505C116.076 76.4128 115.868 76.4793 115.532 76.4793C114.689 76.4793 114.245 76.0972 114.116 75.2541H114.12ZM114.149 73.3602V71.9606C113.718 72.2306 112.97 72.4382 112.273 72.567C110.986 72.8037 109.952 73.028 109.952 74.2366C109.952 75.333 110.811 75.5739 111.654 75.5739C113.373 75.5739 114.153 74.3155 114.153 73.3602H114.149Z" fill="#231F20"/>
<path d="M118.797 69.2569H118.83C119.419 68.4762 120.245 67.9819 121.437 67.9819C123.156 67.9819 124.206 68.9205 124.206 70.6233V76.4004H122.919V70.7355C122.919 69.6681 122.217 69.0659 121.059 69.0659C119.756 69.0659 118.801 69.9879 118.801 71.3418V76.4004H117.514V68.173H118.801V69.2569H118.797Z" fill="#231F20"/>
<path d="M128.834 70.7063C128.834 67.363 130.839 64.7715 134.227 64.7715C136.884 64.7715 138.491 66.2998 138.794 68.4013H137.395C137.125 66.9851 135.995 66.0133 134.198 66.0133C131.703 66.0133 130.299 68.0359 130.299 70.7063C130.299 73.3768 131.844 75.3703 134.214 75.3703C136.361 75.3703 137.378 73.9043 137.523 72.2347H138.939C138.922 73.3643 138.383 74.6394 137.573 75.4326C136.776 76.2134 135.618 76.6246 134.169 76.6246C130.939 76.6246 128.838 74.1576 128.838 70.7063H128.834Z" fill="#231F20"/>
<path d="M140.205 72.2971C140.205 69.909 141.733 67.9695 144.182 67.9695C146.632 67.9695 148.143 69.909 148.143 72.2971C148.143 74.6851 146.648 76.6246 144.182 76.6246C141.716 76.6246 140.205 74.6851 140.205 72.2971ZM146.823 72.2971C146.823 70.4821 145.93 69.0327 144.182 69.0327C142.434 69.0327 141.525 70.4821 141.525 72.2971C141.525 74.112 142.43 75.5448 144.182 75.5448C145.934 75.5448 146.823 74.112 146.823 72.2971Z" fill="#231F20"/>
<path d="M149.799 65.0249H151.086V76.4045H149.799V65.0249Z" fill="#231F20"/>
<path d="M153.25 65.0249H154.537V76.4045H153.25V65.0249Z" fill="#231F20"/>
<path d="M156.193 72.2971C156.193 69.909 157.75 67.9695 160.092 67.9695C162.558 67.9695 163.878 69.8799 163.878 72.6002H157.514C157.609 74.2698 158.514 75.5448 160.171 75.5448C161.362 75.5448 162.159 74.9717 162.446 73.8586H163.704C163.322 75.6237 162.035 76.6288 160.171 76.6288C157.659 76.6288 156.193 74.6893 156.193 72.3012V72.2971ZM157.547 71.6284H162.495C162.417 69.9879 161.574 68.987 160.092 68.987C158.61 68.987 157.738 70.1333 157.547 71.6284Z" fill="#231F20"/>
<path d="M165.244 76.8614H166.435C166.564 77.7667 167.423 78.1198 168.694 78.1198C170.205 78.1198 171.048 77.4345 171.048 76.0017V74.8388H171.014C170.408 75.6196 169.756 76.1138 168.582 76.1138C166.452 76.1138 164.986 74.411 164.986 72.0396C164.986 69.4771 166.593 67.9819 168.503 67.9819C169.694 67.9819 170.458 68.4429 171.014 69.2237H171.048V68.173H172.335V75.956C172.335 78.1198 170.902 79.1373 168.723 79.1373C166.543 79.1373 165.381 78.2776 165.24 76.8614H165.244ZM171.147 71.9773C171.147 70.1789 170.383 69.0659 168.636 69.0659C167.091 69.0659 166.315 70.2745 166.315 72.0562C166.315 73.8379 167.124 75.034 168.652 75.034C170.545 75.034 171.151 73.7133 171.151 71.9773H171.147Z" fill="#231F20"/>
<path d="M173.945 72.2971C173.945 69.909 175.502 67.9695 177.844 67.9695C180.31 67.9695 181.63 69.8799 181.63 72.6002H175.266C175.361 74.2698 176.266 75.5448 177.923 75.5448C179.114 75.5448 179.911 74.9717 180.198 73.8586H181.455C181.074 75.6237 179.787 76.6288 177.923 76.6288C175.411 76.6288 173.945 74.6893 173.945 72.3012V72.2971ZM175.299 71.6284H180.247C180.169 69.9879 179.326 68.987 177.844 68.987C176.362 68.987 175.49 70.1333 175.299 71.6284Z" fill="#231F20"/>
<path d="M185.59 72.2971C185.59 69.909 187.118 67.9695 189.567 67.9695C192.016 67.9695 193.528 69.909 193.528 72.2971C193.528 74.6851 192.033 76.6246 189.567 76.6246C187.101 76.6246 185.59 74.6851 185.59 72.2971ZM192.207 72.2971C192.207 70.4821 191.315 69.0327 189.567 69.0327C187.819 69.0327 186.91 70.4821 186.91 72.2971C186.91 74.112 187.815 75.5448 189.567 75.5448C191.319 75.5448 192.207 74.112 192.207 72.2971Z" fill="#231F20"/>
<path d="M194.449 68.1728H195.578V66.8521C195.578 65.4359 196.388 64.925 197.758 64.925C198.028 64.925 198.235 64.9417 198.41 64.9583V66.0547C198.186 66.0381 198.123 66.0381 197.995 66.0381C197.168 66.0381 196.865 66.2457 196.865 66.9144V68.1728H198.393V69.2236H196.865V76.4002H195.578V69.2236H194.449V68.1728Z" fill="#231F20"/>
<path d="M202.292 72.5503H203.691C203.882 74.4774 205.056 75.4783 207.207 75.4783C208.78 75.4783 209.91 74.7639 209.91 73.3477C209.91 71.7903 208.544 71.4207 206.505 70.9763C204.5 70.5319 202.781 69.9587 202.781 67.8116C202.781 65.9343 204.338 64.8047 206.646 64.8047C209.494 64.8047 210.669 66.2541 210.956 68.3515H209.602C209.395 66.7276 208.344 65.9177 206.676 65.9177C205.131 65.9177 204.114 66.5698 204.114 67.7493C204.114 69.0367 205.389 69.4188 207.091 69.7552C209.303 70.1996 211.321 70.7437 211.321 73.302C211.321 75.4326 209.586 76.6287 207.136 76.6287C203.94 76.6287 202.412 74.847 202.283 72.5545L202.292 72.5503Z" fill="#231F20"/>
<path d="M218.326 76.4002V75.2706H218.293C217.703 76.068 217.006 76.5913 215.81 76.5913C214.125 76.5913 213.041 75.5738 213.041 73.871V68.1729H214.328V73.8377C214.328 74.9051 215.013 75.5239 216.171 75.5239C217.475 75.5239 218.318 74.5355 218.318 73.2314V68.1729H219.605V76.4002H218.318H218.326Z" fill="#231F20"/>
<path d="M222.971 69.5435H223.004C223.498 68.7461 224.357 68.0774 225.453 68.0774C225.694 68.0774 225.819 68.1106 225.977 68.1729V69.4147H225.927C225.736 69.3524 225.607 69.3358 225.354 69.3358C224.079 69.3358 222.967 70.291 222.967 71.836V76.4045H221.68V68.1771H222.967V69.5435H222.971Z" fill="#231F20"/>
<path d="M226.931 76.8614H228.123C228.251 77.7667 229.111 78.1198 230.381 78.1198C231.892 78.1198 232.735 77.4345 232.735 76.0017V74.8388H232.702C232.096 75.6196 231.444 76.1138 230.269 76.1138C228.139 76.1138 226.674 74.411 226.674 72.0396C226.674 69.4771 228.28 67.9819 230.19 67.9819C231.382 67.9819 232.146 68.4429 232.702 69.2237H232.735V68.173H234.022V75.956C234.022 78.1198 232.59 79.1373 230.41 79.1373C228.231 79.1373 227.068 78.2776 226.927 76.8614H226.931ZM232.831 71.9773C232.831 70.1789 232.067 69.0659 230.319 69.0659C228.775 69.0659 227.998 70.2745 227.998 72.0562C227.998 73.8379 228.808 75.034 230.336 75.034C232.229 75.034 232.835 73.7133 232.835 71.9773H232.831Z" fill="#231F20"/>
<path d="M235.633 72.2971C235.633 69.909 237.19 67.9695 239.531 67.9695C241.997 67.9695 243.317 69.8799 243.317 72.6002H236.953C237.049 74.2698 237.954 75.5448 239.61 75.5448C240.802 75.5448 241.599 74.9717 241.885 73.8586H243.143C242.761 75.6237 241.474 76.6288 239.61 76.6288C237.098 76.6288 235.633 74.6893 235.633 72.3012V72.2971ZM236.982 71.6284H241.931C241.852 69.9879 241.009 68.987 239.527 68.987C238.045 68.987 237.173 70.1333 236.982 71.6284Z" fill="#231F20"/>
<path d="M244.426 72.2971C244.426 69.909 245.954 67.9695 248.403 67.9695C250.852 67.9695 252.364 69.909 252.364 72.2971C252.364 74.6851 250.869 76.6246 248.403 76.6246C245.937 76.6246 244.426 74.6851 244.426 72.2971ZM251.043 72.2971C251.043 70.4821 250.151 69.0327 248.403 69.0327C246.655 69.0327 245.746 70.4821 245.746 72.2971C245.746 74.112 246.651 75.5448 248.403 75.5448C250.155 75.5448 251.043 74.112 251.043 72.2971Z" fill="#231F20"/>
<path d="M255.261 69.2569H255.295C255.884 68.4762 256.71 67.9819 257.902 67.9819C259.62 67.9819 260.671 68.9205 260.671 70.6233V76.4004H259.384V70.7355C259.384 69.6681 258.682 69.0659 257.524 69.0659C256.22 69.0659 255.266 69.9879 255.266 71.3418V76.4004H253.979V68.173H255.266V69.2569H255.261Z" fill="#231F20"/>
<path d="M262.166 73.7299H263.486C263.661 75.1627 264.615 75.5614 265.84 75.5614C267.194 75.5614 267.75 74.9717 267.75 74.2075C267.75 73.2855 267.115 73.0446 265.604 72.729C263.98 72.3967 262.536 72.0603 262.536 70.262C262.536 68.8915 263.586 68.0027 265.496 68.0027C267.53 68.0027 268.535 68.9745 268.725 70.5818H267.405C267.277 69.4978 266.691 69.0244 265.467 69.0244C264.242 69.0244 263.81 69.5477 263.81 70.2039C263.81 71.0968 264.607 71.2712 266.023 71.5578C267.675 71.89 269.062 72.2597 269.062 74.1535C269.062 75.8065 267.708 76.6537 265.815 76.6537C263.557 76.6537 262.299 75.5863 262.174 73.7423L262.166 73.7299Z" fill="#231F20"/>
<path fill-rule="evenodd" clip-rule="evenodd" d="M278.158 66.113C278.208 65.5773 276.904 63.9077 275.543 63.8537C274.937 63.8288 275.476 66.1836 275.9 67.6248L277.756 74.681C277.756 74.681 278.225 74.9343 278.561 74.8429C278.893 74.7474 279.254 74.2615 279.254 74.2615C279.254 74.2615 278.382 69.7927 278.204 68.3267C278.025 66.8606 278.154 66.167 278.158 66.113Z" fill="#EF4425"/>
<path fill-rule="evenodd" clip-rule="evenodd" d="M288.329 68.0027L287.167 63.6003C286.723 63.6959 285.469 65.2076 285.469 65.2076C285.469 65.2076 286.818 69.4687 286.843 69.747C286.864 70.0253 288.333 67.9985 288.333 67.9985L288.329 68.0027Z" fill="#EF4425"/>
<path fill-rule="evenodd" clip-rule="evenodd" d="M286.793 70.0751L287.607 72.4714C287.607 72.4714 287.93 72.7289 288.4 72.5877C288.865 72.4465 289.122 71.9606 289.122 71.9606L289.097 71.1466L288.632 69.5642L288.213 68.447L286.793 70.0751Z" fill="#EF4425"/>
<path fill-rule="evenodd" clip-rule="evenodd" d="M278.043 64.2982L279.79 65.324L280.862 66.3L281.418 66.9313L281.999 67.2344L283.73 66.8274L282.701 67.3507L282.256 68.0734L282.651 68.3309L283.954 68.5385L284.257 66.8607L284.174 66.7195L284.374 66.6738L285.167 64.6263L284.722 61.7855C284.722 61.7855 283.116 61.528 282.975 61.6235C282.838 61.7149 277.553 63.1602 277.553 63.1602L278.043 64.3023V64.2982Z" fill="#EF4425"/>
<path fill-rule="evenodd" clip-rule="evenodd" d="M281.093 70.2371C281.093 70.1665 281.487 68.094 281.487 68.094L281.558 67.6538L279.648 65.652L278.112 64.7217L278.066 65.1411L278.183 65.2118L278.814 68.1937L280.35 73.8046L281.259 73.9915C281.259 73.9915 281.097 70.3118 281.097 70.2412L281.093 70.2371Z" fill="#EF4425"/>
<path fill-rule="evenodd" clip-rule="evenodd" d="M283.812 69.5602L281.927 68.6506L281.441 74.1494L282.023 74.5439L283.883 69.8177L283.812 69.5602Z" fill="#EF4425"/>
<path fill-rule="evenodd" clip-rule="evenodd" d="M285.282 74.544C285.328 74.6354 285.444 74.6146 285.54 74.706C285.631 74.7973 287.308 73.8213 287.308 73.8213L287.263 73.2856L287.055 72.6792L286.565 71.047L286.474 70.5113L286.196 70.6733L286.453 70.1126L285.544 66.8067L285.266 66.0134L285.033 66.5949L284.008 69.8094C284.008 69.8094 283.215 73.4434 283.215 73.5099C283.215 73.5763 283.887 73.8587 283.887 73.8587L284.215 73.4185L284.423 73.5348C284.423 73.5348 285.237 74.4443 285.282 74.5357V74.544Z" fill="#EF4425"/>
<path fill-rule="evenodd" clip-rule="evenodd" d="M288.196 73.9749L286.324 74.7972C286.324 74.7972 286.324 75.5281 286.187 75.5738C286.05 75.6195 286.781 77.2641 286.781 77.2641L289.247 78.2692L288.927 76.1677L288.196 73.9749Z" fill="#EF4425"/>
<path fill-rule="evenodd" clip-rule="evenodd" d="M287.604 83.4317L285.275 79.3658L284.316 78.9089L284.225 79.4571L284.407 80.0511V80.7363L285.595 86.721C285.595 86.721 285.96 88.0459 286.188 88.0002C286.417 87.9545 288.289 87.452 288.289 87.452C288.289 87.452 287.924 85.6246 287.924 85.3505C287.924 85.0764 287.604 83.4317 287.604 83.4317Z" fill="#EF4425"/>
<path fill-rule="evenodd" clip-rule="evenodd" d="M288.426 84.9351L289.019 87.3563L290.024 87.4477L290.8 87.1736L288.426 84.9351Z" fill="#EF4425"/>
<path fill-rule="evenodd" clip-rule="evenodd" d="M287.558 80.2794C287.558 80.4164 287.923 82.6093 287.923 82.792C287.923 82.9748 290.754 85.8072 290.754 85.8072L290.526 84.2083L289.841 79.6398L287.375 78.3149C287.375 78.3149 287.558 80.1423 287.558 80.2794Z" fill="#EF4425"/>
<path fill-rule="evenodd" clip-rule="evenodd" d="M286.648 77.7666L286.466 77.7209L286.055 77.9037L285.689 78.589C285.689 78.589 286.1 79.2742 286.1 79.457C286.1 79.6397 286.466 80.2336 286.466 80.2336C286.466 80.2336 286.511 80.7361 286.511 80.9189C286.511 81.1016 287.196 81.4214 287.196 81.4214L287.105 80.5991L286.74 79.3656L286.648 77.7666Z" fill="#EF4425"/>
<path fill-rule="evenodd" clip-rule="evenodd" d="M284.73 78.0325L284.406 77.9287V78.3606L284.73 78.1945V78.0325Z" fill="#EF4425"/>
<path fill-rule="evenodd" clip-rule="evenodd" d="M283.045 76.3713L282.783 76.4336L282.717 76.8697L282.883 77.1687L283.215 77.2975L283.045 76.3713Z" fill="#EF4425"/>
<path fill-rule="evenodd" clip-rule="evenodd" d="M284.743 75.5738L284.576 75.4409L284.273 75.607L284.506 75.9393L284.743 75.5738Z" fill="#EF4425"/>
<path fill-rule="evenodd" clip-rule="evenodd" d="M283.647 77.1023L283.547 77.3972L283.082 77.6671L283.447 77.8997L284.041 77.8L283.979 77.4345L283.647 77.1023Z" fill="#EF4425"/>
<path fill-rule="evenodd" clip-rule="evenodd" d="M282.85 75.2084C282.783 75.3413 283.282 75.3745 283.282 75.3745L283.581 75.0422L283.215 74.6768C283.215 74.6768 282.916 75.0755 282.85 75.2084Z" fill="#EF4425"/>
<path fill-rule="evenodd" clip-rule="evenodd" d="M281.322 76.5041C281.422 76.5041 281.621 76.338 281.621 76.338L281.156 76.1387C281.156 76.1387 281.223 76.5041 281.322 76.5041Z" fill="#EF4425"/>
<path fill-rule="evenodd" clip-rule="evenodd" d="M285.111 77.2559L284.945 77.1272L284.646 77.2892L284.879 77.6256L285.111 77.2559Z" fill="#EF4425"/>
<path fill-rule="evenodd" clip-rule="evenodd" d="M283.625 76.2716L283.339 76.1387C283.339 76.1387 283.334 76.3546 283.326 76.4377C283.326 76.4709 283.625 76.2716 283.625 76.2716Z" fill="#EF4425"/>
<path fill-rule="evenodd" clip-rule="evenodd" d="M279.823 61.5528C281.089 61.5528 282.115 60.527 282.115 59.2603C282.115 57.9936 281.089 56.9678 279.823 56.9678C278.557 56.9678 277.531 57.9936 277.531 59.2603C277.531 60.527 278.557 61.5528 279.823 61.5528Z" fill="#EF4425"/>
</g>
<defs>
<clipPath id="clip0_3145_4738">
<rect width="233.6" height="64" fill="white" transform="translate(57.1992 24)"/>
</clipPath>
</defs>
</svg>
