<svg width="348" height="112" viewBox="0 0 348 112" fill="none" xmlns="http://www.w3.org/2000/svg">
<rect width="348" height="112" fill="white"/>
<g clip-path="url(#clip0_3142_4583)">
<path d="M113.7 24.377H108.164V88H113.7V24.377Z" fill="#B12028"/>
<path d="M103.243 24.377H97.707V88H103.243V24.377Z" fill="#B12028"/>
<path d="M121.696 35.9349C121.696 38.5937 123.66 39.6354 126.071 39.6354C128.73 39.6354 129.722 38.3258 129.722 37.0262C129.722 35.7266 128.998 35.1611 128.293 34.8932C127.083 34.4368 125.516 34.1194 123.144 33.4646C120.198 32.6709 119.325 30.8752 119.325 29.0894C119.325 25.627 122.519 24 125.635 24C129.236 24 132.262 25.9147 132.262 29.516H129.236C129.087 27.2938 127.589 26.4703 125.506 26.4703C124.107 26.4703 122.341 26.9763 122.341 28.7224C122.341 29.9327 123.164 30.6073 124.394 30.9447C124.662 31.0141 128.482 32.0062 129.375 32.2741C131.647 32.9487 132.738 34.8833 132.738 36.679C132.738 40.5481 129.305 42.0958 125.873 42.0958C121.934 42.0958 118.74 40.2108 118.66 35.925H121.696V35.9349Z" fill="#414042"/>
<path d="M135.049 24.4167H149.028V27.026H143.531V41.6891H140.505V27.026H135.039V24.4167H135.049Z" fill="#414042"/>
<path d="M167.978 33.0479C167.978 37.9786 164.882 42.0958 159.704 42.0958C154.525 42.0958 151.43 37.9786 151.43 33.0479C151.43 28.1172 154.525 24 159.704 24C164.882 24 167.978 28.1172 167.978 33.0479ZM154.456 33.0479C154.456 36.3615 156.003 39.6255 159.704 39.6255C163.404 39.6255 164.952 36.3615 164.952 33.0479C164.952 29.7343 163.404 26.4703 159.704 26.4703C156.003 26.4703 154.456 29.7343 154.456 33.0479Z" fill="#414042"/>
<path d="M172.045 24.4167H179.664C184.595 24.4167 185.547 27.6113 185.547 29.7641C185.547 31.917 184.605 35.0818 179.664 35.0619H175.071V41.6891H172.045V24.4167ZM175.071 32.5916H179.496C180.855 32.5916 182.521 31.917 182.521 29.7344C182.521 27.5518 181.142 26.8771 179.545 26.8771H175.071V32.5817V32.5916Z" fill="#414042"/>
<path d="M195.885 24.4167H209.864V27.026H204.367V41.6891H201.341V27.026H195.875V24.4167H195.885Z" fill="#414042"/>
<path d="M213.107 24.4167H216.133V31.282H223.991V24.4167H227.017V41.6891H223.991V33.9012H216.133V41.6891H213.107V24.4167Z" fill="#414042"/>
<path d="M231.957 24.4167H244.388V27.026H234.973V31.5499H243.684V34.0202H234.973V39.0799H244.557V41.6891H231.957V24.4167Z" fill="#414042"/>
<path d="M119.246 44.6654H129.524C133.304 44.6059 137.461 45.5881 137.461 50.1716C137.461 52.1359 136.29 53.7431 134.574 54.5963C136.915 55.2709 138.354 57.3047 138.354 59.7949C138.354 65.0232 134.505 66.6205 129.802 66.6205H119.246V44.6555V44.6654ZM124.961 53.3066H129.385C130.367 53.3066 131.727 52.7808 131.727 51.2133C131.727 49.6458 130.586 49.0902 129.385 49.0902H124.961V53.3066ZM124.961 62.0469H129.544C131.36 62.0469 132.62 61.4021 132.62 59.5865C132.62 57.652 131.27 57.0071 129.544 57.0071H124.961V62.0469Z" fill="#B12028"/>
<path d="M146.984 44.6653H152.709V61.7095H162.947V66.6303H146.984V44.6653Z" fill="#B12028"/>
<path d="M171.311 44.6653H188.811V49.2488H177.025V53.0981H187.789V57.5228H177.025V61.7095H189.119V66.6303H171.311V44.6653Z" fill="#B12028"/>
<path d="M197.918 44.6653H215.419V49.2488H203.632V53.0981H214.397V57.5228H203.632V61.7095H215.726V66.6303H197.918V44.6653Z" fill="#B12028"/>
<path d="M224.516 44.6653H233.96C240.697 44.6653 244.725 48.7527 244.725 55.5585C244.725 62.7611 240.637 66.6303 233.96 66.6303H224.516V44.6653ZM230.24 61.7095H232.948C237.284 61.6202 239.01 59.9237 239.01 55.5287C239.01 51.5306 236.857 49.596 232.948 49.596H230.24V61.7194V61.7095Z" fill="#B12028"/>
<path d="M131.369 75.8073C130.863 73.8231 129.583 72.3746 127.063 72.3746C123.363 72.3746 121.815 75.6386 121.815 78.9522C121.815 82.2658 123.363 85.5298 127.063 85.5298C129.752 85.5298 131.22 83.5257 131.468 81.0058H134.415C134.176 85.1429 131.25 88.0001 127.063 88.0001C121.884 88.0001 118.789 83.8829 118.789 78.9522C118.789 74.0215 121.884 69.9043 127.063 69.9043C130.962 69.9241 134.028 72.077 134.395 75.8073H131.369Z" fill="#414042"/>
<path d="M152.659 78.9522C152.659 83.8829 149.564 88.0001 144.385 88.0001C139.207 88.0001 136.111 83.8829 136.111 78.9522C136.111 74.0215 139.207 69.9043 144.385 69.9043C149.564 69.9043 152.659 74.0215 152.659 78.9522ZM139.137 78.9522C139.137 82.2658 140.685 85.5298 144.385 85.5298C148.086 85.5298 149.634 82.2658 149.634 78.9522C149.634 75.6386 148.086 72.3746 144.385 72.3746C140.685 72.3746 139.137 75.6386 139.137 78.9522Z" fill="#414042"/>
<path d="M159.901 70.311H163.115L169.772 87.5834H166.528L164.911 83.0098H158.016L156.399 87.5834H153.273L159.901 70.311ZM158.829 80.7181H164.107L161.518 73.2873H161.448L158.839 80.7181H158.829Z" fill="#414042"/>
<path d="M171.271 70.311H174.297V84.9742H183.077V87.5834H171.271V70.311Z" fill="#414042"/>
<path d="M185.012 70.311H188.038V87.5834H185.012V70.311Z" fill="#414042"/>
<path d="M189.951 70.311H203.93V72.9202H198.434V87.5834H195.408V72.9202H189.941V70.311H189.951Z" fill="#414042"/>
<path d="M205.795 70.311H208.821V87.5834H205.795V70.311Z" fill="#414042"/>
<path d="M228.009 78.9522C228.009 83.8829 224.914 88.0001 219.735 88.0001C214.556 88.0001 211.461 83.8829 211.461 78.9522C211.461 74.0215 214.556 69.9043 219.735 69.9043C224.914 69.9043 228.009 74.0215 228.009 78.9522ZM214.487 78.9522C214.487 82.2658 216.034 85.5298 219.735 85.5298C223.436 85.5298 224.983 82.2658 224.983 78.9522C224.983 75.6386 223.436 72.3746 219.735 72.3746C216.034 72.3746 214.487 75.6386 214.487 78.9522Z" fill="#414042"/>
<path d="M230.508 70.311H233.702L241.59 83.0396H241.639V70.311H244.516V87.5834H241.322L233.464 74.8846H233.395V87.5834H230.518V70.311H230.508Z" fill="#414042"/>
<path d="M247.028 26.6588H246.75V24.6548H245.996V24.4067H247.782V24.6548H247.028V26.6687V26.6588Z" fill="#414042"/>
<path d="M249.23 26.6588H249.101L248.535 25.3095C248.456 25.121 248.376 24.9226 248.297 24.7044C248.317 25.0218 248.317 25.3095 248.317 25.5675V26.6588H248.039V24.4067H248.436L248.972 25.6865C249.031 25.8354 249.101 26.004 249.17 26.2123C249.249 25.9842 249.319 25.8056 249.368 25.6865L249.904 24.4067H250.301V26.6687H250.023V25.5774C250.023 25.3195 250.023 25.0318 250.043 24.7143C249.964 24.9425 249.884 25.1508 249.805 25.3195L249.24 26.6687H249.249L249.23 26.6588Z" fill="#414042"/>
</g>
<defs>
<clipPath id="clip0_3142_4583">
<rect width="152.584" height="64" fill="white" transform="translate(97.707 24)"/>
</clipPath>
</defs>
</svg>
