<svg width="178" height="178" viewBox="0 0 178 178" fill="none" xmlns="http://www.w3.org/2000/svg">
<path d="M153.1 59.7C153.8 60.4 154.7 60.7 155.6 60.7C156.5 60.7 157.4 60.4 158.1 59.7C159.5 58.3 159.5 56.1 158.1 54.7L140 36.5C138.6 35.1 136.4 35.1 135 36.5C133.6 37.9 133.6 40.1 135 41.5L135.4 41.9L127.9 49.4C121.6 45.1 114.6 41.8 107.1 39.8C106.9 37.9 106.5 36.1 105.8 34.5C107.9 31.3 109.2 27.5 109.2 23.4C109.2 12.4 100.3 3.5 89.2996 3.5C78.2996 3.5 69.3996 12.4 69.3996 23.4C69.3996 27.5 70.6996 31.3 72.7996 34.5C72.0996 36.2 71.6996 38 71.4996 39.8C63.7996 41.9 56.6996 45.2 50.3996 49.6L42.5996 42L42.9996 41.6C44.3996 40.2 44.3996 38 42.9996 36.6C41.5996 35.2 39.3996 35.2 37.9996 36.6L35.0996 39.5L28.9996 45.6L19.8996 54.7C18.4996 56.1 18.4996 58.3 19.8996 59.7C20.5996 60.4 21.4996 60.7 22.3996 60.7C23.2996 60.7 24.1996 60.4 24.8996 59.7L25.2996 59.3L32.9996 67C25.2996 78.1 20.7996 91.5 20.7996 106C20.7996 143.7 51.4996 174.5 89.2996 174.5C127.1 174.5 157.8 143.8 157.8 106C157.8 91.4 153.2 77.8 145.3 66.7L152.7 59.3L153.1 59.7ZM89.2996 30.6C94.1996 30.6 98.2996 33.8 99.5996 38.3C96.1996 37.8 92.7996 37.5 89.2996 37.5C85.7996 37.5 82.3996 37.8 78.9996 38.3C80.2996 33.9 84.3996 30.6 89.2996 30.6ZM89.2996 10.7C96.3996 10.7 102.1 16.4 102.1 23.5C102.1 25.1 101.8 26.7 101.2 28.1C97.9996 25.3 93.8996 23.5 89.2996 23.5C84.6996 23.5 80.4996 25.2 77.3996 28.1C76.7996 26.7 76.4996 25.1 76.4996 23.5C76.4996 16.4 82.1996 10.7 89.2996 10.7ZM30.2996 54.2L37.4996 47L44.5996 54.1C41.9996 56.3 39.5996 58.7 37.3996 61.3L30.2996 54.2ZM89.2996 167.3C55.4996 167.3 27.8996 139.8 27.8996 105.9C27.8996 72 55.3996 44.5 89.2996 44.5C123.2 44.5 150.7 72 150.7 105.9C150.7 139.8 123.1 167.3 89.2996 167.3ZM140.8 61C138.6 58.4 136.1 56 133.5 53.8L140.4 46.9L147.6 54.1L140.8 61Z" fill="#B0252B"/>
<path d="M89.3 52.2C59.6 52.2 35.5 76.2999 35.5 106C35.5 135.7 59.6 159.8 89.3 159.8C119 159.8 143.1 135.7 143.1 106C143.1 76.2999 118.9 52.2 89.3 52.2ZM89.3 152.7C63.5 152.7 42.6 131.7 42.6 106C42.6 80.2999 63.6 59.2999 89.3 59.2999C115 59.2999 136 80.2 136 106C136 131.8 115 152.7 89.3 152.7Z" fill="#B0252B"/>
<path d="M109.4 80.9L95.6004 94.6C93.7004 93.5 91.6004 92.9 89.3004 92.9C87.0004 92.9 84.8004 93.5 82.9004 94.6L75.7004 87.4C74.3004 86 72.1004 86 70.7004 87.4C69.3004 88.8 69.3004 91 70.7004 92.4L78.0004 99.7C77.0004 101.6 76.4004 103.7 76.4004 106C76.4004 113.2 82.2004 119 89.4004 119C96.6004 119 102.4 113.2 102.4 106C102.4 103.7 101.8 101.6 100.8 99.7L114.6 85.9C116 84.5 116 82.3 114.6 80.9C113 79.5 110.8 79.5 109.4 80.9ZM89.3004 111.9C86.0004 111.9 83.4004 109.3 83.4004 106C83.4004 102.7 86.1004 100.1 89.3004 100.1C92.5004 100.1 95.2004 102.7 95.2004 106C95.2004 109.3 92.5004 111.9 89.3004 111.9Z" fill="#B0252B"/>
</svg>
