<svg width="135" height="135" viewBox="0 0 135 135" fill="none" xmlns="http://www.w3.org/2000/svg">
<path d="M105.3 5.18909L90.2816 11.2008L81.0004 20.4821V32.4C80.9266 32.4 78.1422 32.3157 75.6004 32.2418V29.7C75.6109 28.9723 75.3262 28.2656 74.8094 27.7489C74.2926 27.2321 73.5859 26.9473 72.8582 26.9578C71.3711 26.9895 70.1793 28.2129 70.2004 29.7V32.1891C67.5742 32.168 64.8848 32.2207 62.1004 32.3156V29.7C62.1109 28.9723 61.8262 28.2656 61.3094 27.7489C60.7926 27.2321 60.0859 26.9473 59.3582 26.9578C57.8711 26.9895 56.6793 28.2129 56.7004 29.7V32.5582C52.7137 32.7692 49.1383 33.0434 45.9004 33.3598V29.7C45.9109 28.9723 45.6262 28.2656 45.1094 27.7489C44.5926 27.2321 43.8859 26.9473 43.1582 26.9578C41.6711 26.9895 40.4793 28.2129 40.5004 29.7V33.9293C36.5137 34.4145 33.434 34.8891 31.9574 35.1422C31.1348 35.2793 30.4809 35.4059 29.7004 35.543V30.7864C29.7109 30.0481 29.4262 29.352 28.9094 28.8352C28.3926 28.3184 27.6859 28.0336 26.9582 28.0442C25.4711 28.0653 24.2793 29.2887 24.3004 30.7864V36.5239C18.0355 37.7473 13.5848 38.8653 10.8004 39.6246V34.4672C10.9375 33.6867 10.716 32.8746 10.1887 32.2629C9.67187 31.6512 8.90195 31.3032 8.10039 31.3137V36.7137L5.40039 34.0137V64.8C5.40039 65.0321 5.43203 65.2641 5.48477 65.4856C5.43203 65.7071 5.40039 65.9285 5.40039 66.15V126.9C5.40039 128.387 6.61328 129.6 8.10039 129.6H126.9C128.388 129.6 129.6 128.387 129.6 126.9V20.4821L120.319 11.2008L105.3 5.18909ZM105.3 11.011L117.282 15.7992L124.2 22.718V45.3199C122.365 45.1196 120.541 44.9086 118.8 44.7504V29.7C118.8 28.2129 117.588 27 116.1 27H94.5004C93.0133 27 91.8004 28.2129 91.8004 29.7V43.1157C89.8703 43.0629 88.0668 43.0207 86.4004 42.9891V22.718L93.3191 15.7992L105.3 11.011ZM105.3 16.2C103.813 16.2 102.6 17.4129 102.6 18.9C102.6 20.3871 103.813 21.6 105.3 21.6C106.787 21.6 108 20.3871 108 18.9C108 17.4129 106.787 16.2 105.3 16.2ZM97.2004 32.4H113.4V44.2758C107.188 43.7696 101.746 43.4742 97.2004 43.2949V32.4ZM81.0004 35.1V42.9047C79.2496 42.9153 77.4355 42.968 75.6004 43.0524V37.6524C78.1105 37.7157 80.8738 37.8 80.8738 37.8L81.0004 35.1ZM66.7727 37.5785C67.9855 37.5574 69.0508 37.5785 70.2004 37.5891V43.3793C67.3422 43.6008 64.6316 43.8856 62.1004 44.2336V37.7156C63.6508 37.6629 65.2012 37.5891 66.7727 37.5785ZM56.7004 37.9688V45.0879C52.5449 45.8157 49.0223 46.6489 45.9004 47.461V38.7809C49.1066 38.4645 52.7031 38.1797 56.7004 37.9688ZM40.5004 39.3715V48.8848C36.6824 49.8762 33.1598 50.8465 29.7004 51.9856V41.0379C30.7656 40.8375 31.6832 40.6582 32.8434 40.4578C34.1828 40.2364 36.9777 39.8145 40.5004 39.3715ZM24.3004 42.0293V53.4621C24.3004 53.6309 24.3109 53.7996 24.3426 53.9578C22.7184 54.6223 21.0836 55.3184 19.3434 56.1516C19.3328 56.1621 19.3223 56.1621 19.3117 56.1727C15.9789 57.8391 13.1945 59.4949 10.8004 61.0453V45.2145C13.0574 44.5606 17.5609 43.3688 24.3004 42.0293ZM82.9832 48.3047C85.757 48.3258 89.0477 48.4418 92.6547 48.5473C82.2344 55.7403 69.5043 67.2258 57.3227 81.9809C50.0242 90.7875 43.559 100.744 38.718 109.002C34.7102 115.815 31.9891 121.078 30.618 124.2H10.8004V102.484C19.0164 92.2641 30.7973 80.0508 46.9445 68.3332H46.9551L46.9656 68.3227C59.2 59.284 71.1813 52.8821 81.0426 48.3469L81.032 48.3153C81.6754 48.3153 82.3187 48.2942 82.9832 48.3047ZM102.094 49.0008C104.615 49.1379 106.925 49.2539 109.846 49.486C102.02 58.0289 92.9184 69.3668 84.9027 82.561H84.9133C75.516 97.9594 69.673 112.493 65.602 124.2H36.6191C38.0957 121.205 40.3844 116.817 43.3691 111.723C48.1047 103.655 54.4645 93.8989 61.4781 85.4297V85.4192C76.1066 67.711 91.8004 54.7489 102.094 49.0008ZM67.6691 49.0114C60.1703 52.9981 52.0703 57.8391 43.7805 63.9668C29.7531 74.1446 18.9426 84.6809 10.8004 94.0781V67.6582C13.5953 65.6754 16.9598 63.3867 21.6953 61.0137H21.7059C21.7164 61.0137 21.7164 61.0032 21.727 61.0032C29.3102 57.3434 35.248 55.8035 43.6117 53.652C43.6223 53.6414 43.6434 53.6414 43.6645 53.6309C49.423 52.0172 57.2805 50.0344 67.6691 49.0114ZM116.649 50.0555C118.695 50.2453 120.804 50.4668 122.966 50.7094C117.482 62.4586 112.04 75.7371 107.062 90.6715L107.072 90.6504C102.991 102.4 99.8898 113.632 97.4957 124.2H71.3395C75.3156 113.02 80.8527 99.5836 89.5223 85.377C98.2762 70.9489 108.517 58.5563 116.649 50.0555ZM124.2 61.077V124.2H103.033C105.353 114.159 108.306 103.528 112.177 92.4223V92.3906C115.984 80.9895 120.055 70.5797 124.2 61.077Z" fill="#2A4B75"/>
</svg>
