<svg width="136" height="135" viewBox="0 0 136 135" fill="none" xmlns="http://www.w3.org/2000/svg">
<g clip-path="url(#clip0_1927_9195)">
<path d="M16.8832 40.5527C12.6172 40.5527 9.07485 42.2476 6.78452 44.8242C4.49418 47.4009 3.40952 50.7331 3.40952 54.0264C3.40952 57.3196 4.49418 60.6466 6.78452 63.2232C9.07485 65.7999 12.6172 67.4947 16.8832 67.4947C21.1491 67.4947 24.6914 65.7999 26.9818 63.2232C29.2721 60.6466 30.3568 57.3196 30.3568 54.0264C30.3568 50.7331 29.2721 47.4009 26.9818 44.8242C24.6914 42.2476 21.1491 40.5527 16.8832 40.5527ZM48.9193 45.8947C41.0878 45.8947 35.5929 50.1185 33.6896 55.2814C33.4975 55.687 33.3163 56.1058 33.1886 56.5682L33.3099 56.2201L27.3035 70.2106L9.16811 70.2053C5.19998 70.2012 1.46318 72.9082 0.793894 77.0397C0.0167678 81.8129 3.59099 86.4158 8.44038 86.4158H32.7351C35.5896 86.4199 38.2438 84.9095 39.7066 82.4607L39.7277 82.4238L43.166 76.2381C44.2867 77.3111 45.6383 78.1465 47.1105 78.9328C49.4576 80.1864 52.1472 81.266 54.7042 82.2551C56.9038 83.1059 58.8184 83.8509 60.4101 84.5385C59.8934 84.6665 59.5744 84.7735 59.0021 84.9129C57.4993 85.279 55.8959 85.6757 54.3826 86.4686C52.8692 87.2614 51.113 88.9445 51.113 91.241C51.113 92.5145 51.67 93.7471 52.4208 94.6107C53.1717 95.4744 54.0751 96.0629 55.0681 96.5566C57.0541 97.5442 59.4749 98.1572 62.2927 98.6344C67.9284 99.5888 75.136 99.9 82.3054 99.9C89.4646 99.9 96.8318 99.638 102.703 98.4182C105.639 97.8082 108.217 96.9865 110.313 95.5969C112.408 94.2072 114.067 91.8881 114.067 89.1949C114.067 88.2358 113.775 87.2907 113.313 86.4633L126.37 86.5107H126.376C128.948 86.5107 131.38 85.5772 133.073 83.8266C134.766 82.0759 135.649 79.621 135.678 76.9553C135.701 74.8958 135.018 73.0268 133.89 71.4973C134.979 69.9574 135.667 68.111 135.667 66.0973C135.667 60.931 131.42 56.6842 126.254 56.6842H92.963L89.5828 53.2934L89.5353 53.2512C88.4972 52.3042 87.4061 51.5502 86.6349 51.0258L86.5189 50.9467L86.3923 50.8834C83.9301 49.5628 80.9655 48.6063 77.6015 48.6053H77.5962L67.8193 48.5947C58.7186 48.5947 54.8786 45.8947 48.9193 45.8947ZM16.8832 45.9527C19.7991 45.9527 21.6469 46.9469 22.9476 48.4102C24.2483 49.8734 24.9568 51.9331 24.9568 54.0264C24.9568 56.1196 24.2483 58.1741 22.9476 59.6373C21.6469 61.1006 19.7991 62.0947 16.8832 62.0947C13.9672 62.0947 12.1246 61.1006 10.824 59.6373C9.52331 58.1741 8.80952 56.1196 8.80952 54.0264C8.80952 51.9331 9.52331 49.8734 10.824 48.4102C12.1246 46.9469 13.9672 45.9527 16.8832 45.9527ZM48.9193 51.2947C52.9284 51.2947 57.7068 53.9947 67.8193 53.9947L77.5962 54.0053C79.9258 54.0053 81.938 54.649 83.7662 55.6189C84.444 56.0843 85.2437 56.654 85.8755 57.2273L101.511 72.9L125.996 72.9105C128.174 72.9105 130.3 74.8879 130.278 76.8973C130.261 78.4516 129.807 79.4351 129.192 80.0719C128.576 80.7087 127.724 81.1107 126.376 81.1107L101 81.0158C100.556 80.9542 100.142 80.8869 99.6761 80.8313L99.6656 80.9367C98.7372 80.7757 97.8057 80.3503 97.0183 79.7027V79.6975L85.3904 70.2053L40.3394 70.1947L35.0712 79.6922C34.5792 80.5158 33.7036 81.0172 32.7456 81.0158H32.7404H8.44038C6.72877 81.0158 5.80086 79.8975 6.12534 77.9045C6.33085 76.6359 7.66078 75.6038 9.16284 75.6053L30.8578 75.6158L38.346 58.1818L38.3935 58.0025C38.4405 57.8324 38.5115 57.662 38.5992 57.491L38.673 57.3381L38.731 57.1799C39.8134 54.195 42.9144 51.2947 48.9193 51.2947ZM98.3472 62.0842H126.254C128.502 62.0842 130.267 63.8493 130.267 66.0973C130.267 66.8914 130.022 67.6038 129.635 68.2172C128.497 67.7638 127.264 67.5105 125.996 67.5105L103.752 67.5053L98.3472 62.0842ZM52.6951 75.6L83.4656 75.6053L93.5958 83.8793C95.4761 85.4239 97.8574 86.4084 100.425 86.4158H100.573C103.533 86.8576 105.813 87.4496 107.149 88.0717C107.931 88.436 108.378 88.795 108.546 88.9893C108.714 89.1835 108.667 89.1284 108.667 89.1949C108.667 89.9389 108.467 90.3433 107.328 91.0986C106.189 91.854 104.159 92.6027 101.601 93.1342C96.4846 94.1972 89.3213 94.5 82.3054 94.5C75.2999 94.5 68.2603 94.1661 63.1945 93.3082C60.6616 92.8792 58.614 92.2936 57.4728 91.7262C57.0837 91.5327 56.9499 91.4039 56.8031 91.2779C56.8156 91.2808 56.8113 91.2914 56.8874 91.2516C57.5591 90.8997 58.8678 90.5036 60.2783 90.16C61.6887 89.8163 63.186 89.5108 64.5919 88.984C65.2949 88.7206 66 88.4201 66.7119 87.8186C67.4237 87.2169 68.1673 86.0662 68.1673 84.8074C68.1673 82.9886 67.0673 82.1095 66.2689 81.5115C65.4705 80.9136 64.5985 80.4683 63.6058 80.0086C61.6203 79.0893 59.1609 78.1881 56.6554 77.2189C55.3061 76.697 53.9682 76.1511 52.6951 75.6Z" fill="#B8B8B8"/>
</g>
<defs>
<clipPath id="clip0_1927_9195">
<rect width="135" height="135" fill="white" transform="translate(0.667969)"/>
</clipPath>
</defs>
</svg>
