<svg width="135" height="135" viewBox="0 0 135 135" fill="none" xmlns="http://www.w3.org/2000/svg">
<g clip-path="url(#clip0_1927_9181)">
<path d="M38.3065 0C35.596 0 33.1385 1.51875 31.8096 3.88125L17.2127 29.7844C16.4534 31.1344 16.1159 32.7059 16.2002 34.2562L21.4315 128.503C13.2788 129.073 7.84712 129.6 7.84712 129.6C6.36001 129.737 5.26314 131.066 5.40025 132.553C5.53736 134.04 6.86626 135.137 8.35337 135C8.35337 135 33.4866 132.3 67.5002 132.3C101.514 132.3 126.647 135 126.647 135C128.134 135.137 129.463 134.04 129.6 132.553C129.737 131.066 128.64 129.737 127.153 129.6C127.153 129.6 121.722 129.073 113.569 128.503L118.8 34.2562C118.885 32.7059 118.547 31.1344 117.788 29.7844L103.191 3.88125C101.862 1.5293 99.4045 0 96.694 0H38.3065ZM38.3065 5.4H96.694C97.4006 5.4 98.0335 5.81133 98.4659 6.58125L113.063 32.4C113.305 32.843 113.432 33.3809 113.4 33.9187L108.169 128.166C97.696 127.533 83.6581 126.9 67.5002 126.9C51.3424 126.9 37.3045 127.533 26.8315 128.166L21.6002 33.9187C21.5686 33.3809 21.6952 32.843 21.9377 32.4L36.5346 6.49687C36.967 5.7375 37.5999 5.4 38.3065 5.4ZM38.8127 44.4656V75.0937H44.5502V62.1H47.6721C48.8745 62.1 49.7815 62.4269 50.2878 63.1125C50.8045 63.798 51.0788 64.7789 51.1315 65.9812L51.2159 71.8031C51.2475 72.4043 51.3003 73.016 51.3846 73.575C51.4585 74.134 51.6799 74.6613 51.9753 75.0937H58.219V74.7562C57.6811 74.4398 57.3647 73.923 57.2065 73.0687C57.101 72.2144 57.0061 70.8961 56.9534 69.2719C56.9217 68.4387 56.9006 67.7426 56.869 67.0781C56.8374 66.4031 56.8374 65.7914 56.7846 65.2219C56.6264 63.5027 56.1835 62.1949 55.519 61.425C54.844 60.6551 53.7577 60.2226 52.3127 59.9906V59.9062C53.9475 59.5371 55.171 58.6723 55.9409 57.375C56.7213 56.0777 57.1221 54.3691 57.1221 52.3125C57.1221 49.6547 56.4366 47.7035 55.0971 46.4062C53.7577 45.109 51.8592 44.4656 49.444 44.4656H38.8127ZM66.994 44.4656V75.0094H72.8159V44.4656H66.994ZM82.6034 44.4656V75.0094H88.4252V62.8594H91.5471C92.9182 62.8594 94.1417 62.6379 95.2596 62.2687C96.3881 61.8996 97.3479 61.3195 98.1284 60.5812C98.9194 59.843 99.5417 58.8832 99.9846 57.7125C100.428 56.5418 100.66 55.1496 100.66 53.5781C100.66 52.4391 100.501 51.3 100.238 50.2031C99.9741 49.1062 99.4995 48.1887 98.8877 47.3344C98.2655 46.4801 97.5272 45.7523 96.5253 45.225C95.5233 44.6977 94.2049 44.4656 92.7284 44.4656H82.6034ZM44.5502 48.9375H47.3346C50.0135 48.9375 51.3003 50.4141 51.3003 53.2406C51.3003 54.8965 50.9522 56.0883 50.2034 56.7844C49.4545 57.491 48.3893 57.7969 46.9971 57.7969H44.5502V48.9375ZM88.4252 48.9375H90.8721C92.317 48.9375 93.2979 49.4016 93.9096 50.2031C94.5319 51.0047 94.8378 52.1227 94.8378 53.6625C94.8378 55.234 94.5319 56.468 93.8252 57.2062C93.1186 57.9445 92.1061 58.3031 90.9565 58.3031H88.4252V48.9375Z" fill="#404040"/>
</g>
<defs>
<clipPath id="clip0_1927_9181">
<rect width="135" height="135" fill="white"/>
</clipPath>
</defs>
</svg>
