<svg width="136" height="135" viewBox="0 0 136 135" fill="none" xmlns="http://www.w3.org/2000/svg">
<path d="M67.8313 2.69995C67.1152 2.69995 66.4284 2.98441 65.9221 3.49076C65.4157 3.99711 65.1313 4.68387 65.1313 5.39995C65.1313 6.11604 65.4157 6.80279 65.9221 7.30914C66.4284 7.81549 67.1152 8.09995 67.8313 8.09995C68.5473 8.09995 69.2341 7.81549 69.7404 7.30914C70.2468 6.80279 70.5312 6.11604 70.5312 5.39995C70.5312 4.68387 70.2468 3.99711 69.7404 3.49076C69.2341 2.98441 68.5473 2.69995 67.8313 2.69995ZM51.7578 4.8146C51.0417 4.8146 50.355 5.09906 49.8486 5.60541C49.3423 6.11176 49.0578 6.79852 49.0578 7.5146C49.0578 8.23068 49.3423 8.91744 49.8486 9.42379C50.355 9.93014 51.0417 10.2146 51.7578 10.2146C52.4739 10.2146 53.1607 9.93014 53.667 9.42379C54.1734 8.91744 54.4578 8.23068 54.4578 7.5146C54.4578 6.79852 54.1734 6.11176 53.667 5.60541C53.1607 5.09906 52.4739 4.8146 51.7578 4.8146ZM83.9047 4.8146C83.1886 4.8146 82.5018 5.09906 81.9955 5.60541C81.4892 6.11176 81.2047 6.79852 81.2047 7.5146C81.2047 8.23068 81.4892 8.91744 81.9955 9.42379C82.5018 9.93014 83.1886 10.2146 83.9047 10.2146C84.6208 10.2146 85.3075 9.93014 85.8139 9.42379C86.3202 8.91744 86.6047 8.23068 86.6047 7.5146C86.6047 6.79852 86.3202 6.11176 85.8139 5.60541C85.3075 5.09906 84.6208 4.8146 83.9047 4.8146ZM36.7812 11.0162C36.0652 11.0162 35.3784 11.3006 34.8721 11.807C34.3657 12.3133 34.0813 13.0001 34.0813 13.7162C34.0813 14.4322 34.3657 15.119 34.8721 15.6253C35.3784 16.1317 36.0652 16.4162 36.7812 16.4162C37.4973 16.4162 38.1841 16.1317 38.6904 15.6253C39.1968 15.119 39.4813 14.4322 39.4813 13.7162C39.4813 13.0001 39.1968 12.3133 38.6904 11.807C38.1841 11.3006 37.4973 11.0162 36.7812 11.0162ZM98.8812 11.0162C98.1652 11.0162 97.4784 11.3006 96.9721 11.807C96.4657 12.3133 96.1813 13.0001 96.1813 13.7162C96.1813 14.4322 96.4657 15.119 96.9721 15.6253C97.4784 16.1317 98.1652 16.4162 98.8812 16.4162C99.5973 16.4162 100.284 16.1317 100.79 15.6253C101.297 15.119 101.581 14.4322 101.581 13.7162C101.581 13.0001 101.297 12.3133 100.79 11.807C100.284 11.3006 99.5973 11.0162 98.8812 11.0162ZM67.8313 13.5C38.0399 13.5 13.8313 37.7086 13.8313 67.5C13.8313 97.2913 38.0399 121.5 67.8313 121.5C97.6226 121.5 121.831 97.2913 121.831 67.5C121.831 37.7086 97.6226 13.5 67.8313 13.5ZM67.8313 18.9C77.3358 18.9 86.1665 21.6597 93.65 26.3619C93.0364 27.863 92.1172 30.0718 90.8551 32.8429C89.9023 34.935 88.8675 37.0686 87.9494 38.7123C87.4904 39.5341 87.0558 40.2365 86.7154 40.7109C86.375 41.1853 86.0326 41.4251 86.3147 41.2488L80.7406 44.666C80.5607 44.7762 80.3943 44.9072 80.2449 45.0562C78.8795 46.4216 78.3568 48.499 78.8053 50.2927C78.9203 50.7576 79.1569 51.1834 79.4908 51.5267L81.0307 53.1035C80.2336 53.3719 79.4258 53.6166 78.5838 54.0843C78.026 54.3942 77.4464 54.7825 76.9121 55.4185C76.3778 56.0545 75.9313 57.0375 75.9313 58.05C75.9313 59.8147 76.4622 61.3358 77.0914 63.0123C77.406 63.8505 77.7459 64.6379 78.183 65.3695C78.4016 65.7353 78.6325 66.0901 79.0215 66.4822C79.4105 66.8742 80.041 67.5 81.3313 67.5C85.7026 67.5 88.6449 65.6197 90.3172 63.624C91.9895 61.6282 92.7594 60.0149 94.3408 58.9201C96.1558 57.664 97.2957 57.511 98.2484 57.2642C98.4419 57.5516 98.4317 57.4274 98.6809 57.9076C99.4179 59.328 100.178 61.5195 100.215 64.5837C100.189 64.5548 100.097 64.9526 99.7355 65.4064C99.2418 66.0259 98.4104 66.819 97.3678 67.5474C95.2825 69.0042 92.3763 70.2 89.4313 70.2C84.0385 70.2 80.4039 71.7907 78.3254 74.1709C76.2469 76.551 75.9313 79.3225 75.9313 81C75.9313 86.1982 79.1726 89.7759 82.2066 91.7208C83.7237 92.6933 85.2257 93.3398 86.4359 93.7669C86.9269 93.9402 87.1548 93.9528 87.5117 94.057C87.9394 94.8517 88.5257 96.0953 90.1326 99.9C90.9471 101.832 92.8205 105.872 93.998 108.427C86.4427 113.263 77.4818 116.1 67.8313 116.1C65.0277 116.1 62.2985 115.811 59.6258 115.356C60.1831 112.198 61.236 108.541 62.2994 105.411C63.4255 102.096 64.3179 99.9363 64.7779 98.6449C66.3664 97.589 70.5312 94.4721 70.5312 87.4125C70.5312 85.989 70.1221 84.901 69.1654 83.5945C68.2088 82.288 66.3823 81 64.1188 81C62.8691 81 62.7924 80.9654 62.3205 80.6783C61.8487 80.3911 60.8937 79.5228 59.1775 77.9783C59.1758 77.9783 59.174 77.9783 59.1723 77.9783C56.9508 75.9808 54.2644 75.6 52.3063 75.6H48.2563H41.1688C39.2 75.6 38.9589 75.014 38.5637 74.2236C38.1685 73.4332 38.1313 72.5625 38.1313 72.5625V67.5H39.8188C40.1874 67.5 40.058 67.4834 40.0508 67.4789C40.1226 67.7194 40.168 68.0579 40.6994 68.7392C41.3511 69.5747 42.7664 70.2 43.8688 70.2C45.6567 70.2 47.4648 69.1658 48.2088 67.8796C48.9528 66.5934 48.9313 65.4622 48.9313 64.8C48.9313 63.442 49.0883 61.9782 49.6432 61.1033C50.198 60.2283 51.0433 59.4 54.3312 59.4C55.8982 59.4 57.8316 59.1043 59.552 57.7968C61.2723 56.4894 62.4313 54.1168 62.4313 51.3V41.85C62.4313 41.3955 62.4639 39.8019 61.4662 38.1533C60.4686 36.5046 58.1938 35.1 55.3438 35.1C53.4518 35.1 52.1858 34.8248 51.8316 34.6412C51.4775 34.4575 51.6313 34.8413 51.6313 34.0875C51.6313 34.1593 51.7523 33.1298 52.0531 31.9623C52.3539 30.7947 52.8026 29.3314 53.3504 27.791C54.3096 25.0939 55.6151 22.1931 56.8572 20.1867C60.3882 19.3727 64.0503 18.9 67.8313 18.9ZM23.9193 20.888C23.2033 20.888 22.5165 21.1725 22.0101 21.6789C21.5038 22.1852 21.2193 22.872 21.2193 23.588C21.2193 24.3041 21.5038 24.9909 22.0101 25.4972C22.5165 26.0036 23.2033 26.288 23.9193 26.288C24.6354 26.288 25.3222 26.0036 25.8285 25.4972C26.3349 24.9909 26.6193 24.3041 26.6193 23.588C26.6193 22.872 26.3349 22.1852 25.8285 21.6789C25.3222 21.1725 24.6354 20.888 23.9193 20.888ZM111.743 20.888C111.027 20.888 110.34 21.1725 109.834 21.6789C109.328 22.1852 109.043 22.872 109.043 23.588C109.043 24.3041 109.328 24.9909 109.834 25.4972C110.34 26.0036 111.027 26.288 111.743 26.288C112.459 26.288 113.146 26.0036 113.652 25.4972C114.159 24.9909 114.443 24.3041 114.443 23.588C114.443 22.872 114.159 22.1852 113.652 21.6789C113.146 21.1725 112.459 20.888 111.743 20.888ZM49.6537 22.4384C49.1506 23.6214 48.6748 24.8149 48.2615 25.9769C47.6632 27.6593 47.1721 29.2582 46.8219 30.6175C46.4716 31.9769 46.2313 32.9397 46.2313 34.0875C46.2313 36.2496 47.5285 38.4911 49.3479 39.4347C51.1672 40.3783 53.1047 40.5 55.3438 40.5C56.8083 40.5 56.7292 40.7541 56.8467 40.9482C56.9641 41.1423 57.0312 41.5755 57.0312 41.85V51.3C57.0312 52.8706 56.6714 53.1981 56.2824 53.4937C55.8934 53.7894 55.1268 54 54.3312 54C49.8433 54 46.6381 55.7621 45.0869 58.2082C43.8697 60.1275 43.6728 61.9965 43.6156 63.5238C43.4246 63.3295 43.425 63.14 43.1779 62.9753C42.2176 62.3351 41.0633 62.1 39.8188 62.1H37.4562C35.7466 62.1 33.8738 63.2377 33.2428 64.5679C32.6117 65.8982 32.7313 66.9343 32.7313 67.5V72.3779C30.4854 70.7265 28.8585 69.5352 27.4262 67.0042C27.0096 66.2679 26.4732 65.5253 25.7387 64.8685C25.7369 64.8667 25.7352 64.865 25.7334 64.8632L24.9266 64.146C24.9248 64.146 24.923 64.146 24.9213 64.146C23.4448 62.835 21.5401 62.1051 19.5635 62.1C21.5604 44.0333 33.4094 28.9855 49.6537 22.4384ZM98.1693 29.5523C109.295 38.4528 116.431 52.1198 116.431 67.5C116.431 82.746 109.429 96.3206 98.4699 105.226C97.2396 102.544 95.7209 99.256 95.1055 97.7959C93.2679 93.445 92.5657 91.7271 91.7199 90.3708C91.5084 90.0314 91.2241 89.7432 90.8875 89.5271C90.551 89.3109 90.1707 89.1723 89.774 89.121C90.0576 89.1572 89.1351 88.9926 88.2289 88.6728C87.3227 88.353 86.184 87.8554 85.1229 87.1751C83.0006 85.8146 81.3313 84.0556 81.3313 81C81.3313 80.0044 81.5219 78.7267 82.3965 77.7252C83.2711 76.7236 85.0365 75.6 89.4313 75.6C93.7763 75.6 97.6211 73.9628 100.463 71.9771C101.884 70.9843 103.061 69.9032 103.96 68.7761C104.858 67.649 105.631 66.5575 105.631 64.8C105.631 60.6966 104.57 57.5453 103.469 55.4238C102.368 53.3023 101.075 52.0382 101.075 52.0382C100.769 51.7495 100.4 51.5362 99.9973 51.4154C99.5944 51.2945 99.1689 51.2695 98.7547 51.3421C98.7547 51.3421 94.8927 51.974 91.2717 54.4798C88.4656 56.4225 87.2626 58.8592 86.1775 60.1541C85.2927 61.21 84.4047 61.7251 82.5125 61.9207C82.386 61.649 82.2732 61.4597 82.1434 61.1138C81.7666 60.1098 81.6051 59.1999 81.5 58.6986C81.9582 58.4799 82.6492 58.2083 83.5355 57.9128C83.7631 57.8364 83.9795 57.73 84.1789 57.5964C85.7796 56.5293 86.0311 55.2923 86.3147 54.3849C86.5982 53.4776 86.7049 52.6921 86.7049 52.6921C86.763 52.2825 86.7261 51.8649 86.5972 51.4718C86.4683 51.0786 86.2507 50.7203 85.9613 50.4246L84.3582 48.7792L89.157 45.8367C89.1623 45.8332 89.1676 45.8297 89.1729 45.8261C90.1299 45.228 90.5759 44.5937 91.1029 43.8591C91.63 43.1246 92.1421 42.2832 92.6639 41.349C93.7075 39.4805 94.7821 37.2478 95.7699 35.0789C96.705 33.0257 97.5287 31.0856 98.1693 29.5523ZM14.0475 33.75C13.3314 33.75 12.6446 34.0344 12.1383 34.5408C11.6319 35.0471 11.3475 35.7339 11.3475 36.45C11.3475 37.166 11.6319 37.8528 12.1383 38.3591C12.6446 38.8655 13.3314 39.15 14.0475 39.15C14.7635 39.15 15.4503 38.8655 15.9566 38.3591C16.463 37.8528 16.7475 37.166 16.7475 36.45C16.7475 35.7339 16.463 35.0471 15.9566 34.5408C15.4503 34.0344 14.7635 33.75 14.0475 33.75ZM121.615 33.75C120.899 33.75 120.212 34.0344 119.706 34.5408C119.2 35.0471 118.915 35.7339 118.915 36.45C118.915 37.166 119.2 37.8528 119.706 38.3591C120.212 38.8655 120.899 39.15 121.615 39.15C122.331 39.15 123.018 38.8655 123.524 38.3591C124.031 37.8528 124.315 37.166 124.315 36.45C124.315 35.7339 124.031 35.0471 123.524 34.5408C123.018 34.0344 122.331 33.75 121.615 33.75ZM7.8459 48.7265C7.12981 48.7265 6.44306 49.011 5.93671 49.5173C5.43036 50.0237 5.1459 50.7104 5.1459 51.4265C5.1459 52.1426 5.43036 52.8294 5.93671 53.3357C6.44306 53.8421 7.12981 54.1265 7.8459 54.1265C8.56198 54.1265 9.24874 53.8421 9.75509 53.3357C10.2614 52.8294 10.5459 52.1426 10.5459 51.4265C10.5459 50.7104 10.2614 50.0237 9.75509 49.5173C9.24874 49.011 8.56198 48.7265 7.8459 48.7265ZM127.817 48.7265C127.101 48.7265 126.414 49.011 125.907 49.5173C125.401 50.0237 125.117 50.7104 125.117 51.4265C125.117 52.1426 125.401 52.8294 125.907 53.3357C126.414 53.8421 127.101 54.1265 127.817 54.1265C128.533 54.1265 129.219 53.8421 129.726 53.3357C130.232 52.8294 130.517 52.1426 130.517 51.4265C130.517 50.7104 130.232 50.0237 129.726 49.5173C129.219 49.011 128.533 48.7265 127.817 48.7265ZM5.73125 64.8C5.01517 64.8 4.32841 65.0844 3.82206 65.5908C3.31571 66.0971 3.03125 66.7839 3.03125 67.5C3.03125 68.216 3.31571 68.9028 3.82206 69.4091C4.32841 69.9155 5.01517 70.2 5.73125 70.2C6.44733 70.2 7.13409 69.9155 7.64044 69.4091C8.14679 68.9028 8.43125 68.216 8.43125 67.5C8.43125 66.7839 8.14679 66.0971 7.64044 65.5908C7.13409 65.0844 6.44733 64.8 5.73125 64.8ZM129.931 64.8C129.215 64.8 128.528 65.0844 128.022 65.5908C127.516 66.0971 127.231 66.7839 127.231 67.5C127.231 68.216 127.516 68.9028 128.022 69.4091C128.528 69.9155 129.215 70.2 129.931 70.2C130.647 70.2 131.334 69.9155 131.84 69.4091C132.347 68.9028 132.631 68.216 132.631 67.5C132.631 66.7839 132.347 66.0971 131.84 65.5908C131.334 65.0844 130.647 64.8 129.931 64.8ZM19.2313 67.5H19.5424C20.2042 67.5 20.8407 67.741 21.3354 68.1802L22.1422 68.8974C22.3247 69.0618 22.5407 69.3318 22.7275 69.6621C24.9765 73.636 27.8941 75.4848 30.4953 77.4351C31.9329 78.5133 33.839 79.4657 35.5051 80.8154C37.1712 82.1651 38.1365 83.5375 38.1365 84.7125C38.1365 89.4317 39.6136 93.951 40.9842 97.8539C42.3548 101.757 43.5365 105.22 43.5365 106.65V109.577C29.0034 101.19 19.2313 85.5125 19.2313 67.5ZM7.8459 80.8734C7.12981 80.8734 6.44306 81.1579 5.93671 81.6642C5.43036 82.1705 5.1459 82.8573 5.1459 83.5734C5.1459 84.2895 5.43036 84.9762 5.93671 85.4826C6.44306 85.9889 7.12981 86.2734 7.8459 86.2734C8.56198 86.2734 9.24874 85.9889 9.75509 85.4826C10.2614 84.9762 10.5459 84.2895 10.5459 83.5734C10.5459 82.8573 10.2614 82.1705 9.75509 81.6642C9.24874 81.1579 8.56198 80.8734 7.8459 80.8734ZM127.817 80.8734C127.101 80.8734 126.414 81.1579 125.907 81.6642C125.401 82.1705 125.117 82.8573 125.117 83.5734C125.117 84.2895 125.401 84.9762 125.907 85.4826C126.414 85.9889 127.101 86.2734 127.817 86.2734C128.533 86.2734 129.219 85.9889 129.726 85.4826C130.232 84.9762 130.517 84.2895 130.517 83.5734C130.517 82.8573 130.232 82.1705 129.726 81.6642C129.219 81.1579 128.533 80.8734 127.817 80.8734ZM42.6453 81H48.2563H52.3063C53.748 81 54.5705 81.1088 55.56 81.9966C57.2188 83.4896 58.1794 84.4776 59.5098 85.2873C60.8402 86.097 62.4524 86.4 64.1188 86.4C64.5553 86.4 64.5849 86.4781 64.8096 86.7849C65.0342 87.0917 65.1313 87.864 65.1313 87.4125C65.1313 93.1285 61.2236 94.7847 61.2236 94.7847C60.9063 94.9431 60.6232 95.1625 60.3907 95.4304C60.1582 95.6982 59.9807 96.0092 59.8684 96.3457C59.7772 96.6193 58.4694 99.9032 57.1895 103.67C56.1049 106.863 54.9889 110.599 54.3418 114.17C52.4866 113.636 50.6932 112.96 48.9365 112.219V106.65C48.9365 103.22 47.413 99.8463 46.0836 96.0609C44.7542 92.2755 43.5365 88.2552 43.5365 84.7125C43.5365 83.3278 43.1903 82.0955 42.6453 81ZM14.0475 95.85C13.3314 95.85 12.6446 96.1344 12.1383 96.6408C11.6319 97.1471 11.3475 97.8339 11.3475 98.5499C11.3475 99.266 11.6319 99.9528 12.1383 100.459C12.6446 100.965 13.3314 101.25 14.0475 101.25C14.7635 101.25 15.4503 100.965 15.9566 100.459C16.463 99.9528 16.7475 99.266 16.7475 98.5499C16.7475 97.8339 16.463 97.1471 15.9566 96.6408C15.4503 96.1344 14.7635 95.85 14.0475 95.85ZM121.615 95.85C120.899 95.85 120.212 96.1344 119.706 96.6408C119.2 97.1471 118.915 97.8339 118.915 98.5499C118.915 99.266 119.2 99.9528 119.706 100.459C120.212 100.965 120.899 101.25 121.615 101.25C122.331 101.25 123.018 100.965 123.524 100.459C124.031 99.9528 124.315 99.266 124.315 98.5499C124.315 97.8339 124.031 97.1471 123.524 96.6408C123.018 96.1344 122.331 95.85 121.615 95.85ZM23.9193 108.712C23.2033 108.712 22.5165 108.996 22.0101 109.503C21.5038 110.009 21.2193 110.696 21.2193 111.412C21.2193 112.128 21.5038 112.815 22.0101 113.321C22.5165 113.827 23.2033 114.112 23.9193 114.112C24.6354 114.112 25.3222 113.827 25.8285 113.321C26.3349 112.815 26.6193 112.128 26.6193 111.412C26.6193 110.696 26.3349 110.009 25.8285 109.503C25.3222 108.996 24.6354 108.712 23.9193 108.712ZM111.743 108.712C111.027 108.712 110.34 108.996 109.834 109.503C109.328 110.009 109.043 110.696 109.043 111.412C109.043 112.128 109.328 112.815 109.834 113.321C110.34 113.827 111.027 114.112 111.743 114.112C112.459 114.112 113.146 113.827 113.652 113.321C114.159 112.815 114.443 112.128 114.443 111.412C114.443 110.696 114.159 110.009 113.652 109.503C113.146 108.996 112.459 108.712 111.743 108.712ZM36.7812 118.584C36.0652 118.584 35.3784 118.868 34.8721 119.375C34.3657 119.881 34.0813 120.568 34.0813 121.284C34.0813 122 34.3657 122.687 34.8721 123.193C35.3784 123.699 36.0652 123.984 36.7812 123.984C37.4973 123.984 38.1841 123.699 38.6904 123.193C39.1968 122.687 39.4813 122 39.4813 121.284C39.4813 120.568 39.1968 119.881 38.6904 119.375C38.1841 118.868 37.4973 118.584 36.7812 118.584ZM98.8812 118.584C98.1652 118.584 97.4784 118.868 96.9721 119.375C96.4657 119.881 96.1813 120.568 96.1813 121.284C96.1813 122 96.4657 122.687 96.9721 123.193C97.4784 123.699 98.1652 123.984 98.8812 123.984C99.5973 123.984 100.284 123.699 100.79 123.193C101.297 122.687 101.581 122 101.581 121.284C101.581 120.568 101.297 119.881 100.79 119.375C100.284 118.868 99.5973 118.584 98.8812 118.584ZM51.7578 124.785C51.0417 124.785 50.355 125.07 49.8486 125.576C49.3423 126.082 49.0578 126.769 49.0578 127.485C49.0578 128.201 49.3423 128.888 49.8486 129.394C50.355 129.901 51.0417 130.185 51.7578 130.185C52.4739 130.185 53.1607 129.901 53.667 129.394C54.1734 128.888 54.4578 128.201 54.4578 127.485C54.4578 126.769 54.1734 126.082 53.667 125.576C53.1607 125.07 52.4739 124.785 51.7578 124.785ZM83.9047 124.785C83.1886 124.785 82.5018 125.07 81.9955 125.576C81.4892 126.082 81.2047 126.769 81.2047 127.485C81.2047 128.201 81.4892 128.888 81.9955 129.394C82.5018 129.901 83.1886 130.185 83.9047 130.185C84.6208 130.185 85.3075 129.901 85.8139 129.394C86.3202 128.888 86.6047 128.201 86.6047 127.485C86.6047 126.769 86.3202 126.082 85.8139 125.576C85.3075 125.07 84.6208 124.785 83.9047 124.785ZM67.8313 126.9C67.1152 126.9 66.4284 127.184 65.9221 127.691C65.4157 128.197 65.1313 128.884 65.1313 129.6C65.1313 130.316 65.4157 131.003 65.9221 131.509C66.4284 132.015 67.1152 132.3 67.8313 132.3C68.5473 132.3 69.2341 132.015 69.7404 131.509C70.2468 131.003 70.5312 130.316 70.5312 129.6C70.5312 128.884 70.2468 128.197 69.7404 127.691C69.2341 127.184 68.5473 126.9 67.8313 126.9Z" fill="#466C5D"/>
</svg>
