<svg width="135" height="135" viewBox="0 0 135 135" fill="none" xmlns="http://www.w3.org/2000/svg">
<path d="M26.9998 10.8V54H8.08398L8.49531 124.2H46.0264H51.4264H89.0998H126.9V21.6H83.6998V24.3V75.6001H70.1893V10.8211L26.9998 10.8ZM32.3998 16.2L64.7893 16.2211V75.6001H51.3367L51.2945 54H48.5998H32.3998V16.2ZM40.4998 21.6V27H45.8998V21.6H40.4998ZM51.4053 21.6V27H56.6998V21.6H51.4053ZM89.0998 27H121.5V118.8H107.894V108H102.6V118.8H89.0998V75.6001V27ZM40.4998 32.4V37.8H45.8998V32.4H40.4998ZM51.2998 32.4V37.8H56.6998V32.4H51.2998ZM97.1998 32.4106V37.8H102.6V32.4106H97.1998ZM108.053 32.4211V37.8581H113.347V32.4211H108.053ZM97.1998 43.2422V48.6H102.6V43.2422H97.1998ZM108.053 43.2422V48.6H113.347V43.2422H108.053ZM97.1998 54V59.4001H102.6V54H97.1998ZM108 54V59.4001H113.347V54H108ZM13.5156 59.4001H45.9051L45.9367 75.6001H45.8945L46.0105 118.8H32.3471V108H27.0525V118.8H13.8637L13.5156 59.4001ZM21.5998 64.8V70.2422H27.1053V64.8H21.5998ZM32.5053 64.8V70.2422H37.7998V64.8H32.5053ZM97.1998 64.8211V70.1948H102.6V64.8211H97.1998ZM108 64.8211V70.1948H113.347V64.8211H108ZM21.5998 75.5579V81.0001H27.1053V75.5579H21.5998ZM32.5053 75.5579V81.0001H37.7998V75.5579H32.5053ZM97.1998 75.579V81.0211H102.6V75.579H97.1998ZM108.053 75.579V81.0211H113.347V75.579H108.053ZM51.3473 81.0001H83.6998V118.8H70.1998V108H64.7998V118.8H51.4158L51.3473 81.0001ZM21.5998 86.4V91.8422H27.1053V86.4H21.5998ZM32.5053 86.4V91.8422H37.7998V86.4H32.5053ZM59.3998 86.4V91.8422H64.7998V86.4H59.3998ZM70.1998 86.4V91.8422H75.5998V86.4H70.1998ZM97.1998 86.4V91.8422H102.6V86.4H97.1998ZM108.053 86.4V91.8422H113.347V86.4H108.053ZM59.3998 97.1579V102.6H64.7998V97.1579H59.3998ZM70.1998 97.1579V102.6H75.5998V97.1579H70.1998ZM97.1998 97.1579V102.6H102.6V97.1579H97.1998ZM108.053 97.1579V102.6H113.347V97.1579H108.053Z" fill="#286CA9"/>
</svg>
